<svg id="Layer_1" data-name="Layer 1" xmlns="http://www.w3.org/2000/svg" viewBox="0 0 951.05 951.95"><title>abof</title><g id="BeKo6U.tif"><path d="M488.19,44h33.17c3.91,0.84,7.78,2,11.74,2.46,15.74,1.73,31.7,2.18,47.23,5,101.17,18.29,186.91,64.87,255.61,141.7C909.57,275.47,948.17,372.39,949.4,482.5c1.65,146.83.41,293.68,0.41,440.53,0,3.66,0,7.32,0,11.29H766.59v-13q0-205.75-.08-411.51c0-15.84-.63-31.72-1.9-47.51-4.47-55.5-25.64-104.64-62.29-145.83-65.87-74.05-149-104.47-246.77-86.24-137,25.56-230.4,155.87-209.87,297.7,11.05,76.35,50.93,136,114.19,179.81,61.32,42.43,129.92,50.43,201.9,40.87,12.82-1.7,25.6-3.69,39.07-5.65L642.79,917.2c-4.15,1.33-6.73,2.26-9.37,3-67.68,18.4-136.22,19.95-205,8.56-93.94-15.56-174-59.32-240.43-126.48C118.37,731.87,76.21,647.06,63.28,548.19c-6.14-46.89-5.57-93.63,3.33-139.84,20.74-107.66,73.6-196.8,159.25-265.51,66-53,141.21-85.19,225.82-94.29C463.87,47.24,476,45.53,488.19,44Z" transform="translate(-29.21 -14)" style="fill:none;stroke:#7e7e7e;stroke-miterlimit:10;stroke-width:60px"/><path d="M488.19,44c-12.17,1.53-24.32,3.24-36.51,4.55-84.61,9.1-159.79,41.32-225.82,94.29C140.21,211.55,87.35,300.69,66.61,408.36c-8.9,46.21-9.47,92.95-3.33,139.84C76.21,647.06,118.37,731.87,188,802.25c66.46,67.17,146.49,110.92,240.43,126.48,68.77,11.39,137.31,9.84,205-8.56,2.64-.72,5.21-1.65,9.37-3L600.85,742.95c-13.47,2-26.25,3.94-39.07,5.65-72,9.56-140.58,1.57-201.9-40.87C296.63,664,256.75,604.27,245.7,527.92c-20.53-141.83,72.83-272.14,209.87-297.7C553.3,212,636.46,242.41,702.33,316.46c36.64,41.19,57.81,90.33,62.29,145.83,1.27,15.79,1.88,31.67,1.9,47.51q0.22,205.75.08,411.51v13H949.81c0-4,0-7.63,0-11.29,0-146.84,1.24-293.7-.41-440.53-1.23-110.11-39.83-207-113.46-289.35C767.24,116.31,681.5,69.74,580.33,51.44c-15.53-2.81-31.49-3.25-47.23-5C529.14,46,489.87,45,486,44.2" transform="translate(-29.21 -14)" style="fill:none;stroke:#7e7e7e;stroke-miterlimit:10;stroke-width:60px"/><path d="M952.59,937.56" transform="translate(-29.21 -14)" style="fill:#fff;stroke:#7e7e7e;stroke-miterlimit:10;stroke-width:60px"/></g><path d="M582.58,747.81c12.64-2.73,25.22-5.74,38.49-8.77" transform="translate(-29.21 -14)" style="fill:none;stroke:#c81c8c;stroke-miterlimit:10;stroke-width:60px"/><path d="M600.35,743.44c-13.47,2-26.25,3.94-39.07,5.65-72,9.56-140.58,1.57-201.9-40.87C296.13,664.44,256.25,604.76,245.2,528.41" transform="translate(-29.21 -14)" style="fill:none;stroke:#c81c8c;stroke-miterlimit:10;stroke-width:60px"/></svg>