<?xml version="1.0" encoding="utf-8"?>
<!-- Generator: Adobe Illustrator 19.2.1, SVG Export Plug-In . SVG Version: 6.00 Build 0)  -->
<svg version="1.1" id="Layer_1" xmlns="http://www.w3.org/2000/svg" xmlns:xlink="http://www.w3.org/1999/xlink" x="0px" y="0px"
	 viewBox="0 0 462 330" style="enable-background:new 0 0 462 330;" xml:space="preserve">
<path fill="#1976D2" d="M462,286c0,24.3-19.7,44-44,44H44c-24.3,0-44-19.7-44-44V44C0,19.7,19.7,0,44,0h374c24.3,0,44,19.7,44,44V286z"
	/>
<g>
	<path fill="#FFFFFF" d="M211.8,121l-23.2,51.5L165.4,121h-29.6v74l-33-74h-25L44,197.8h20l7.4-17.1h37.8l7.5,17.1h38.1v-57l25.3,57
		h17.2l25.9-56v56H242V121H211.8z M78.5,164.1l11.3-26.8l11.7,26.8H78.5z"/>
	<path fill="#FFFFFF" d="M383.7,158.5l34.3-37.3h-24.4L371.7,145l-21.2-24H275v76.8h73l23-25.4l22.4,25.6h24.3L383.7,158.5z M338,181.7
		h-44.1v-15.2h42.2v-14.6h-42.2v-14.4l46.6,0.1l18.6,20.9L338,181.7z"/>
</g>
</svg>
