<svg xmlns="http://www.w3.org/2000/svg" xmlns:xlink="http://www.w3.org/1999/xlink" x="0" y="0" version="1.1" viewBox="0 0 50 50" width="1000" height="1000" style="fill: rgb(91, 91, 91);"><g transform=""><g fill="none" stroke="none" stroke-width="1" stroke-linecap="butt" stroke-linejoin="miter" stroke-miterlimit="10" stroke-dasharray="" stroke-dashoffset="0" font-family="sans-serif" font-weight="normal" font-size="12" text-anchor="start" mix-blend-mode="normal"><g><g><g><path d="M0,50l0,-50l50,0l0,50z" fill="none"/><g fill="#5b5b5b"><path d="M28.6191,43.7964c-0.17502,0.13291 -0.39206,0.20681 -0.6191,0.2036l-6,0c-0.55228,0.07767 -1.06296,-0.30709 -1.14062,-0.85937c-0.07767,-0.55228 0.30709,-1.06296 0.85938,-1.14062c0.03123,-0.00146 0.06252,-0.00146 0.09375,0c0.03123,-0.00146 0.06252,-0.00146 0.09375,0c0.03123,-0.00147 0.06252,-0.00147 0.09375,0l6,0c0.05745,-0.00081 0.11425,0.00331 0.1699,0.01208c0.10433,0.61143 0.25534,1.20748 0.44919,1.78432z M30.26842,47l-15.26842,0c-1.64546,0 -3,-1.35454 -3,-3l0,-3.59375c-0.13372,-0.27634 -0.13372,-0.59866 0,-0.875l0,-30.25c-0.06004,-0.19336 -0.06004,-0.40039 0,-0.59375l0,-2.6875c0,-1.64545 1.35454,-3 3,-3l20,0c1.64546,0 3,1.35455 3,3l0,2.78125c0.02779,0.13399 0.02779,0.27226 0,0.40625l0,18.98035c-0.68791,0.11665 -1.35639,0.29238 -2,0.52173l0,-18.68958l-22,0l0,29l14.04159,0c-0.02754,0.32984 -0.04159,0.66336 -0.04159,1c0,0.33664 0.01405,0.67016 0.04159,1l-14.04159,0l0,3c0,0.55454 0.44546,1 1,1l14.0979,0c0.32623,0.70588 0.71914,1.37528 1.17052,2z M22.46875,15.96875c0.20564,-0.00214 0.39163,0.12185 0.46875,0.3125l0.5,1.03125c0.47858,-0.20236 1.01005,-0.3125 1.5625,-0.3125c0.55245,0 1.08392,0.11014 1.5625,0.3125l0.5,-1.03125c0.05778,-0.13511 0.17207,-0.23797 0.3125,-0.28125c0.19129,-0.04739 0.39258,0.02199 0.51404,0.17719c0.12146,0.1552 0.14044,0.36726 0.04846,0.54156l-0.53125,1.09375c0.89728,0.67485 1.4772,1.71998 1.5625,2.90625c0.00388,0.05392 0.02952,0.10172 0.03125,0.15625c0.00016,0.01042 0.00016,0.02083 0,0.03125c0.00077,0.03236 0,0.06119 0,0.09375c0.00407,0.052 0.00407,0.10425 0,0.15625l0,5.84375c0,0.52222 -0.18547,1.06047 -0.5625,1.4375c-0.12788,0.12788 -0.27944,0.22846 -0.4375,0.3125l0,2.25c0.0051,0.36064 -0.18438,0.69608 -0.49587,0.87789c-0.3115,0.18181 -0.69676,0.18181 -1.00825,0c-0.3115,-0.18181 -0.50097,-0.51725 -0.49587,-0.87789l0,-2l-2,0l0,2c0.0051,0.36064 -0.18438,0.69608 -0.49587,0.87789c-0.3115,0.18181 -0.69676,0.18181 -1.00825,0c-0.3115,-0.18181 -0.50097,-0.51725 -0.49587,-0.87789l0,-2.25c-0.15806,-0.08404 -0.30962,-0.18462 -0.4375,-0.3125c-0.37703,-0.37703 -0.5625,-0.91528 -0.5625,-1.4375l0,-5.90625c-0.00147,-0.03123 -0.00147,-0.06252 0,-0.09375c-0.00261,-0.04163 -0.00261,-0.08337 0,-0.125c0.00173,-0.05453 0.02737,-0.10233 0.03125,-0.15625c0.0853,-1.18627 0.66522,-2.2314 1.5625,-2.90625l-0.53125,-1.09375c-0.07273,-0.13046 -0.08334,-0.28661 -0.02891,-0.42571c0.05443,-0.1391 0.16819,-0.24658 0.31016,-0.29304c0.02008,-0.01186 0.04096,-0.0223 0.0625,-0.03125c0.02081,-0.0013 0.04169,-0.0013 0.0625,0z M14,6l0,2l22,0l0,-2c0,-0.55455 -0.44546,-1 -1,-1l-20,0c-0.55454,0 -1,0.44545 -1,1z M23,26.96875c0.07385,0.0023 0.14721,0.01279 0.21875,0.03125l3.59375,0c0.03072,-0.01196 0.062,-0.02238 0.09375,-0.03125c0.03123,-0.00147 0.06252,-0.00147 0.09375,0l0,-4.96875l-4,0z M19.68662,20.23673c0.20944,0.19747 0.32363,0.4756 0.31338,0.76327l0,5c0.0051,0.36064 -0.18438,0.69608 -0.49587,0.87789c-0.3115,0.18181 -0.69676,0.18181 -1.00825,0c-0.3115,-0.18181 -0.50097,-0.51725 -0.49587,-0.87789l0,-5c-0.01149,-0.47702 0.31562,-0.89572 0.78125,-1c0.04095,-0.01309 0.0827,-0.02353 0.125,-0.03125c0.28657,-0.02714 0.57093,0.07052 0.78037,0.26798z M31.68662,20.23673c0.20944,0.19747 0.32363,0.4756 0.31338,0.76327l0,5c0.0051,0.36064 -0.18438,0.69608 -0.49587,0.87789c-0.3115,0.18181 -0.69676,0.18181 -1.00825,0c-0.3115,-0.18181 -0.50097,-0.51725 -0.49587,-0.87789l0,-5c-0.01149,-0.47702 0.31562,-0.89572 0.78125,-1c0.04095,-0.01309 0.0827,-0.02353 0.125,-0.03125c0.28657,-0.02714 0.57093,0.07052 0.78037,0.26798z M23.25,20l3.5,0c-0.32224,-0.61493 -0.93989,-1 -1.75,-1c-0.81011,0 -1.42776,0.38507 -1.75,1z"/></g><g fill="#666666"><g><path d="M40,50c-5.5,0 -10,-4.5 -10,-10c0,-5.5 4.5,-10 10,-10c5.5,0 10,4.5 10,10c0,5.5 -4.5,10 -10,10z M40,32c-4.4,0 -8,3.6 -8,8c0,4.4 3.6,8 8,8c4.4,0 8,-3.6 8,-8c0,-4.4 -3.6,-8 -8,-8z M45.8,36.7l-1.5,-1.3l-5.4,6.3l-3.3,-2.5l-1.2,1.6l4.7,3.6l6.7,-7.7z"/></g></g></g></g></g></g></g></svg>