<svg xmlns="http://www.w3.org/2000/svg" viewBox="0 0 857.798 1000"><path d="M857.713 969.808l-68.33-939.14C788.1 13.008 772.566 0 754.86 0H102.938c-17.705 0-33.24 13.01-34.522 30.668L.085 969.808C-1.198 987.466 12.24 1000 29.945 1000h797.908c17.706 0 31.143-12.534 29.86-30.192zM789.99 966H67.808c-17.705 0-31.142-13.488-29.86-31.147l63.206-869.55C102.436 47.646 117.97 34 135.676 34H722.12c17.707 0 33.242 13.645 34.524 31.304l63.206 869.55C821.132 952.51 807.695 966 789.99 966z"/><path d="M562.22 90.444c-18.832 0-34.1 15.267-34.1 34.1 0 16.017 11.044 29.447 25.93 33.11-12.145 68.842-63.644 120.702-125.152 120.702-62.207 0-114.17-53.048-125.546-123.062 11.444-5.5 19.344-17.203 19.344-30.75 0-18.833-15.267-34.1-34.1-34.1-18.833 0-34.1 15.267-34.1 34.1 0 15.082 9.795 27.87 23.367 32.368 5.27 35.437 19.72 68.125 41.976 94.185 29.002 33.962 67.733 52.665 109.06 52.665 41.324 0 80.055-18.703 109.058-52.665 22.993-26.925 37.65-60.926 42.465-97.722 9.55-6.043 15.898-16.692 15.898-28.83 0-18.834-15.266-34.1-34.1-34.1z"/></svg>