<svg id="Layer_1" data-name="Layer 1" xmlns="http://www.w3.org/2000/svg" viewBox="0 0 493.84 472.75"><title>chat</title><path d="M250,18.63C117.27,18.63,8.08,112.1,8.08,228.91c0,67.77,37.56,127.54,94.26,165.79-0.09,2.25,0,5.77-3,16.81-3.68,13.64-10.92,32.94-26,54.38L62.46,481l18.79,0.33c65.14,0.28,102.89-42.54,108.77-49.44,19.24,4.27,39.25,7.25,60,7.25,132.72,0,241.92-93.48,241.92-210.28S382.72,18.63,250,18.63Zm0,19.78c123.57,0,222.15,86,222.15,190.51S373.57,419.41,250,419.41a258.07,258.07,0,0,1-61-7.25l-5.93-1.32-4,4.94S148.66,450.14,100,458.3c8.76-15.74,15.44-30.35,18.46-41.53,4.21-15.6,4.28-26.37,4.28-26.37v-5.27l-4.61-3C63,347.22,27.85,291.59,27.85,228.91,27.85,124.37,126.42,38.4,250,38.4Z" transform="translate(-3.08 -13.63)" style="fill:#7c7c7c;stroke:#7c7c7c;stroke-miterlimit:10;stroke-width:10px"/><rect x="124.02" y="170.98" width="239.48" height="31.23" style="fill:#cb118e"/><rect x="162.17" y="241.65" width="163.18" height="31.23" style="fill:#cb118e"/></svg>