<svg xmlns="http://www.w3.org/2000/svg" viewBox="0 0 1000 1000"><path d="M839.306 0H160.694C72.087 0 0 72.087 0 160.694v678.61C0 927.913 72.087 1000 160.694 1000h678.612C927.913 1000 1000 927.912 1000 839.305v-678.61C1000 72.086 927.913 0 839.306 0zm130.138 839.305c0 71.76-58.38 130.14-130.138 130.14H160.694c-71.76 0-130.138-58.38-130.138-130.14v-678.61c0-71.76 58.38-130.14 130.138-130.14h678.612c71.76 0 130.138 58.38 130.138 130.14v678.61z"/><path d="M386.568 666.907L218.038 498.38l-41.05 41.05 209.58 209.58 436.444-436.444-41.052-41.05z"/></svg>