<svg xmlns="http://www.w3.org/2000/svg" viewBox="0 0 1000.001 1000.001"><path d="M500 0C223.85 0 0 223.868 0 500s223.848 500 500 500 500-223.867 500-500S776.154 0 500 0zm0 960C246.35 960 40 753.654 40 500S246.348 40 500 40s460 206.348 460 460-206.347 460-460 460z"/><path d="M367.63 725.807c-4.285 0-8.38-4.387-11.404-7.41L207.032 567.86c-6.3-6.3-6.3-17.18 0-23.48 6.3-6.3 16.507-6.635 22.808-.335L367.472 681.51l386.436-396.978c6.22-6.38 16.428-6.57 22.807-.34 6.395 6.212 6.52 16.398.315 22.785L379.19 718.25c-3.007 3.102-7.134 7.557-11.45 7.557h-.11z"/></svg>