<svg id="Layer_1" data-name="Layer 1" xmlns="http://www.w3.org/2000/svg" viewBox="0 0 492.18 492.23"><title>contact</title><path d="M102.82,3.9c-8.56-.71-18.13,1.8-27,8C68.09,17.3,51.29,30.64,35.63,45.67a200.16,200.16,0,0,0-21.07,23C8.76,76.41,3.68,83.44,4,93.63,4.3,102.81,5.25,130,24.75,171.5S82.12,270,156,343.94,286.9,455.75,328.43,475.25s68.7,20.45,77.88,20.75c10.19,0.32,17.21-4.78,24.9-10.57a200.35,200.35,0,0,0,23-21.07c15-15.65,28.32-32.42,33.76-40.2,12.34-17.59,10.3-38.41-3.47-48.07-8.65-6.05-88.2-59-100.13-66.3-12.15-7.43-26.14-4.08-38.61,2.51-9.87,5.2-36.44,20.46-44,24.81-5.71-3.63-27.42-18.06-74.14-64.77s-61.1-68.41-64.73-74.12c4.34-7.59,19.56-34.08,24.79-44v0c6.56-12.43,10.2-26.54,2.42-38.78-3.31-5.22-18.19-27.85-33.24-50.62s-29.32-44.33-33-49.49v0C119,8.51,111.38,4.6,102.82,3.9Zm-2,22.86a12.4,12.4,0,0,1,4.89,1.59c1.8,2.5,17.47,26,32.5,48.7s30.34,46.06,33,50.29c0.43,0.67,1.05,8.08-3.32,16.36v0l0,0c-4.93,9.4-27.91,49.62-27.91,49.62L136.74,199l3.28,5.59s17.17,29,71.78,83.58S295.37,360,295.37,360l5.59,3.28L306.6,360s40.16-23,49.62-28h0c8.21-4.34,15.65-3.76,16.51-3.23,7.77,4.76,93.64,61.85,98.95,65.56,0.16,0.11,4.83,7.19-2,16.9l0,0a391.57,391.57,0,0,1-31.58,37.54,183.68,183.68,0,0,1-20.35,18.69c-6.1,4.59-11.56,6-10.72,6.07-9.5-.31-30.5-0.51-69.07-18.63s-93.61-54.33-166.15-126.88S63.11,200.56,45,162,26.67,102.4,26.37,92.91c0,0.85,1.48-4.64,6.07-10.74A183.25,183.25,0,0,1,51.11,61.79a392.87,392.87,0,0,1,37.54-31.6v0C93.48,26.84,97.74,26.38,100.79,26.76Z" transform="translate(-3.99 -3.78)" style="fill:#7e7e7e"/><path d="M149.77,196.56s73.46,98.29,151,149" transform="translate(-3.99 -3.78)" style="fill:none;stroke:#c61e8d;stroke-miterlimit:10;stroke-width:25px"/></svg>