<svg xmlns="http://www.w3.org/2000/svg" viewBox="0 0 859.5806 1000.001"><path d="M859.496 971.505L791.023 32.173C789.738 14.478 774.173 0 756.43 0H103.15C85.41 0 69.843 14.478 68.558 32.173L.085 971.505C-1.2 989.2 12.265 1000 30.007 1000h799.567c17.742 0 31.207-10.8 29.922-28.495zm-67.865-3.762H67.952c-17.743 0-31.208-13.116-29.923-30.812l63.337-870.955c1.285-17.695 16.852-33.717 34.594-33.717h587.665c17.74 0 33.308 16.022 34.594 33.717l63.336 870.956c1.286 17.697-12.18 30.813-29.922 30.813z"/><path d="M274.84 158.667c5.273 37.74 20.614 71.718 43.08 98.044 28.023 32.905 67.742 53.988 111.87 53.968 44.128.02 83.847-21.063 111.87-53.967 23.415-27.437 39.083-63.19 43.682-102.85 7.465-6.27 12.22-15.662 12.22-26.172 0-18.872-15.3-34.17-34.172-34.17-18.873 0-34.172 15.298-34.172 34.17 0 14.85 9.49 27.45 22.72 32.163-5.13 29.554-17.607 55.79-34.807 75.912-22.958 26.795-53.67 42.637-87.34 42.658-33.67-.02-64.382-15.863-87.34-42.658-17.805-20.827-30.515-48.22-35.288-79.047 9.714-6.026 16.204-16.755 16.204-29.027 0-18.872-15.298-34.17-34.17-34.17-18.873 0-34.172 15.298-34.172 34.17 0 13.738 8.126 25.55 19.817 30.98z"/><circle cx="345.782" cy="576.387" r="33.603"/><circle cx="513.799" cy="576.387" r="33.603"/><path d="M511.195 713.296c0-3.192-1.596-4.79-3.193-6.385l-4.788-4.787c-3.193-4.788-7.98-7.98-12.77-12.77-4.788-3.192-9.576-7.98-15.96-11.173-6.385-3.192-12.77-6.384-20.75-7.98-6.386-1.597-14.367-3.192-22.348-3.192h-11.172L409.04 670.2c-7.98 1.596-14.365 4.788-20.75 7.98-12.77 6.385-22.346 14.366-30.327 22.347-15.962 15.96-20.75 28.73-20.75 28.73s11.173-9.576 25.538-19.153c4.79-3.193 9.578-4.79 14.367-7.98 4.788-3.194 11.173-4.79 15.96-7.982 6.386-1.596 11.175-3.192 17.56-4.788l9.577-1.597h9.576c4.788-1.596 11.174 1.597 17.558 1.597 6.385 1.596 11.173 3.192 17.558 4.788 4.79 3.192 11.173 6.384 15.962 7.98 6.384 3.193 9.577 4.79 14.365 7.982s7.98 4.788 11.173 7.98c3.193 1.597 4.79 4.79 7.98 6.385 4.79 4.788 7.982 6.384 7.982 6.384s-1.596-3.192-4.79-7.98c-1.595-3.193-3.19-6.385-6.383-9.578z"/><path d="M429.79 405.906c-123.23 0-223.126 99.898-223.126 223.127S306.56 852.16 429.79 852.16s223.126-99.898 223.126-223.127S553.02 405.906 429.79 405.906zm0 414.253c-105.387 0-191.126-85.74-191.126-191.127s85.74-191.127 191.126-191.127 191.126 85.74 191.126 191.127S535.18 820.16 429.79 820.16z"/></svg>