<svg id="Layer_1" data-name="Layer 1" xmlns="http://www.w3.org/2000/svg" viewBox="0 0 980.16 979.91"><title>ex</title><path d="M786.77,162.33v55.12A395.13,395.13,0,0,1,897,493c0.57,222.47-179.31,403.28-401.78,403.85H493a387.55,387.55,0,0,1-183.73-44.09v80.38A495.94,495.94,0,0,0,493,969.91C757,969.43,970.6,755,970.12,491A478,478,0,0,0,838.33,162.33H786.77Z" transform="translate(-2.46 -2.5)" style="fill:#7e7e7e;stroke:#fff;stroke-miterlimit:10;stroke-width:25px"/><path d="M199.08,823.51V768.39A395.13,395.13,0,0,1,88.85,492.8C88.21,270.33,268,89.45,490.51,88.84H493a387.55,387.55,0,0,1,183.73,44.09V51.75A496.06,496.06,0,0,0,493,15C229,15.06,15,229.13,15,493.14A478,478,0,0,0,147.64,823.51h51.44Z" transform="translate(-2.46 -2.5)" style="fill:#7e7e7e;stroke:#fff;stroke-miterlimit:10;stroke-width:25px"/><circle cx="495.3" cy="479.64" r="179.78" style="fill:none;stroke:#c61e8d;stroke-miterlimit:10;stroke-width:40px"/><polyline points="188.67 627.49 188.67 811.1 5.06 811.1" style="fill:none;stroke:#7e7e7e;stroke-miterlimit:10;stroke-width:40px"/><polyline points="789.09 349.31 789.09 165.59 972.82 165.59" style="fill:none;stroke:#7e7e7e;stroke-miterlimit:10;stroke-width:40px"/></svg>
