<svg id="Layer_1" data-name="Layer 1" xmlns="http://www.w3.org/2000/svg" viewBox="0 0 97.59 97.59"><defs><style>.cls-1,.cls-2{fill:#5d51a2;}.cls-2{stroke:#5d51a2;stroke-miterlimit:10;stroke-width:3px;}</style></defs><title>+</title><g id="_Group_" data-name="&lt;Group&gt;"><path id="_Compound_Path_" data-name="&lt;Compound Path&gt;" class="cls-1" d="M49.87,1.11A48.79,48.79,0,1,0,98.67,49.91,48.8,48.8,0,0,0,49.87,1.11m0,93.69a44.89,44.89,0,1,1,44.9-44.9,45,45,0,0,1-44.9,44.9" transform="translate(-1.08 -1.11)"/></g><polygon class="cls-2" points="65.51 49 50.81 49 50.81 34.3 49.54 34.3 49.54 49 34.84 49 34.84 50.27 49.54 50.27 49.54 64.97 50.81 64.97 50.81 50.27 65.51 50.27 65.51 49"/></svg>