<svg id="Layer_1" data-name="Layer 1" xmlns="http://www.w3.org/2000/svg" viewBox="0 0 884.42 988.91"><title>female_1</title><path d="M144.69,988.87l579-3.52v-62L700.29,858l-10.15-53.3,16-45.13,17.54-45.19L734.53,694,622.37,661.3S633.3,873.86,442.21,910.85c0,0-229-92.07-193.74-251.47L169.89,694S217,771.66,197.06,836,136,926.83,144.69,988.87Z" transform="translate(0 -0.01)" style="fill:#47a5a3"/><path d="M173.31,890.25s49.45-131,269.62,37.88c0,0,178.75-126,258.08-70.47,0,0,38.85,106.7,23.42,127.34l-579,3.52S153.88,882.73,173.31,890.25Z" transform="translate(0 -0.01)" style="fill:#f3e26a;opacity:0.33000001311302185;isolation:isolate"/><path d="M344.87,518.48c-49.27,0-147.8-25.8-147.8-25.8s32.84-131.38,32.84-213.49V180.65A164.21,164.21,0,0,1,394.11,16.43h98.55A164.21,164.21,0,0,1,656.89,180.62h0v98.56c0,82.11,32.84,213.49,32.84,213.49s-98.53,25.8-147.8,25.8l-9.64-32.29L360.81,489.7Z" transform="translate(0 -0.01)" style="fill:#fec46c"/><path d="M394.13,115c0,49.27,49.27,164.22,197.07,164.22h0c0,117.91-16.42,229.91-147.8,229.91s-147.8-112-147.8-229.91V246.34a65.69,65.69,0,0,1,65.69-65.69h49.27Z" transform="translate(0 -0.01)" style="fill:#fff"/><path d="M443.42,525.52c-164.22,0-164.22-166.38-164.22-246.34V246.34a82.21,82.21,0,0,1,82.11-82.11h26.25c-6.79-18.52-9.83-35.8-9.83-49.27h32.84c0,39.46,42.81,147.8,180.65,147.8a16.42,16.42,0,0,1,16.42,16.42C607.62,359.14,607.62,525.52,443.42,525.52ZM361.29,197.07A49.32,49.32,0,0,0,312,246.34v32.84C312,411,334,492.67,443.4,492.67c104.92,0,129.43-75.12,131.27-197.53-89.76-5-143.35-50.78-171.47-98.08H361.29Z" transform="translate(0 -0.01)" style="fill:#606566"/><path d="M541.93,541.94V509.1c35.31,0,99.69-18.6,128.28-27.45-8.65-37.22-29.79-134.91-29.79-202.46V180.65c0-81.49-66.31-147.8-147.8-147.8H394.13c-81.49,0-147.8,66.31-147.8,147.8v98.53c0,67.56-21.09,165.24-29.74,202.47,28.59,8.84,93,27.45,128.28,27.45v32.84c-51.34,0-148.87-32.32-153-33.69a16.43,16.43,0,0,1-10.74-19.57c0.32-1.29,32.36-130.39,32.36-209.51V180.65C213.49,81,294.52,0,394.13,0h98.53c99.61,0,180.65,81,180.65,180.65v98.53c0,79.18,32,208.21,32.36,209.51a16.43,16.43,0,0,1-10.74,19.57C690.8,509.63,593.28,541.94,541.93,541.94Z" transform="translate(0 -0.01)" style="fill:#606566"/><path d="M884.42,988.87H851.66V841.46c0-85.52-66.91-114.23-169-148.25-72.36-24.1-158.6-60.59-158.6-97.42V481.14h32.76V595.79c4.85,12.21,68.6,43.79,136.24,66.36,89.7,29.85,191.36,63.79,191.36,179.31v147.4h0Z" transform="translate(0 -0.01)" style="fill:#606566"/><path d="M32.75,988.87H0V841.46C0,725.93,101.66,692,191.36,662.15,259,639.58,322.75,608,327.72,594.61l-0.16-113.46h32.76V595.79c0,36.83-86.25,73.32-158.6,97.42-102.07,34-169,62.73-169,148.25v147.4h0Z" transform="translate(0 -0.01)" style="fill:#606566"/><path d="M442.21,923.36a16.53,16.53,0,0,1-6.69-1.42c-8.42-3.78-206.22-93.69-206.22-211.49V661.3h32.76v49.13c0,77.08,124.19,152,180.15,178.5,56-26.53,180.17-101.53,180.17-178.5V661.3h32.74v49.13c0,117.8-197.8,207.72-206.22,211.49A16.53,16.53,0,0,1,442.21,923.36Z" transform="translate(0 -0.01)" style="fill:#606566"/><path d="M160.59,882.15l-0.47.86-0.37.91c-3.09,7.53-23.67,60.23-15.06,105H181c-8.9-28.4,4.16-73.53,11-90.75,24.23-44.93,27.57-96.36,9.64-148.81-13.37-39.14-33.91-65.14-34.78-66.23L139.31,705a207.71,207.71,0,0,1,29.36,56.72C183.25,805.18,180.53,845.69,160.59,882.15Z" transform="translate(0 -0.01)" style="fill:#616666"/><path d="M706.66,988.87H743c8.61-44.72-12-97.42-15.06-105l-0.37-.91-0.47-.86c-19.94-36.46-22.65-77-8.08-120.41A207.71,207.71,0,0,1,748.35,705l-13.8-11-13.77-11c-0.87,1.09-21.4,27.09-34.78,66.23-17.92,52.44-14.58,103.87,9.64,148.77C702.5,915.37,715.55,960.48,706.66,988.87Z" transform="translate(0 -0.01)" style="fill:#616666"/></svg>
