<svg xmlns="http://www.w3.org/2000/svg" viewBox="0 0 1000 782.6091"><path d="M717.39 391.305c0 47.956 39 86.956 86.958 86.956 47.957 0 86.957-39 86.957-86.956s-39-86.956-86.957-86.956c-47.957 0-86.957 39-86.957 86.957zM978.26 369.566h-45.434c1.196 7.086 1.956 14.325 1.956 21.74s-.76 14.65-1.956 21.738h45.435c12.023 0 21.74-9.74 21.74-21.74s-9.717-21.738-21.74-21.738zM21.74 413.043h654.13c-1.196-7.086-1.957-14.325-1.957-21.74s.76-14.65 1.957-21.737H21.74c-12 0-21.74 9.74-21.74 21.74s9.74 21.738 21.74 21.738zM500 173.913c47.956 0 86.957-39 86.957-86.957C586.957 39 547.957 0 500 0c-47.956 0-86.957 39-86.957 86.956 0 47.957 39 86.957 86.957 86.957zM978.26 108.696c12.023 0 21.74-9.74 21.74-21.74s-9.717-21.74-21.74-21.74H628.48c1.196 7.09 1.957 14.328 1.957 21.74 0 7.413-.76 14.653-1.957 21.74H978.26zM21.74 108.696H371.52c-1.196-7.087-1.957-14.326-1.957-21.74 0-7.412.76-14.65 1.957-21.74H21.74c-12 0-21.74 9.74-21.74 21.74s9.74 21.74 21.74 21.74zM260.87 608.696c-47.957 0-86.957 39-86.957 86.956 0 47.957 39 86.957 86.956 86.957s86.956-39 86.956-86.958c0-47.956-39-86.956-86.957-86.956zM21.74 673.913c-12 0-21.74 9.718-21.74 21.74 0 12.02 9.74 21.74 21.74 21.74h110.65c-1.194-7.09-1.955-14.306-1.955-21.74 0-7.436.76-14.653 1.956-21.74H21.74zM978.26 673.913H389.35c1.195 7.087 1.956 14.304 1.956 21.74 0 7.434-.76 14.65-1.956 21.74H978.26c12.023 0 21.74-9.72 21.74-21.74 0-12.022-9.717-21.74-21.74-21.74z"/></svg>