<?xml version="1.0" encoding="utf-8"?>
<!-- Generator: Adobe Illustrator 19.0.0, SVG Export Plug-In . SVG Version: 6.00 Build 0)  -->
<svg version="1.1" id="Layer_1" xmlns="http://www.w3.org/2000/svg" xmlns:xlink="http://www.w3.org/1999/xlink" x="0px" y="0px"
	 viewBox="0 0 1000 1000" style="enable-background:new 0 0 1000 1000;" xml:space="preserve">
<g id="XMLID_37_">
	<path id="XMLID_47_" d="M820,822.9L820,822.9c-7.4,0-14.8-0.8-22.2-2.3c-39.1-8.1-70.9-39.6-79.1-78.2c-6.6-30.8,1-62.3,20.8-86.4
		c19.8-24.1,49.1-38,80.5-38c57.1,0,103.6,46,103.6,102.5c0,27.3-10.8,53.1-30.4,72.4C873.6,812.2,847.6,822.9,820,822.9z M820,649
		c-21.8,0-42.3,9.7-56.1,26.5c-13.8,16.8-19.1,38.9-14.5,60.5c5.7,26.8,27.8,48.6,54.9,54.3c5.2,1.1,10.5,1.6,15.7,1.6
		c19.3,0,37.4-7.4,51.1-21s21.2-31.5,21.2-50.5C892.2,681,859.8,649,820,649z M820,761.5c-22.9,0-41.5-18.4-41.5-41.1
		c0-22.6,18.6-41.1,41.5-41.1c22.9,0,41.5,18.4,41.5,41.1C861.5,743.1,842.9,761.5,820,761.5z M820,710.4c-5.6,0-10.2,4.5-10.2,10.1
		c0,5.6,4.6,10.1,10.2,10.1s10.2-4.5,10.2-10.1C830.2,714.9,825.6,710.4,820,710.4z"/>
	<path id="XMLID_44_" d="M993.2,502.3l-92.7-128.1l-61.1-72.3c-6.9-8.2-17.1-12.9-27.9-12.9H659.7c-20,0-36.4,16.1-36.4,36v399
		c0,19.8,16.3,36,36.4,36h21.9c17.9,0,33.8-13.9,36.3-31.6c7.1-51.1,48.1-85.5,102.1-85.5s95,34.3,102.1,85.5
		c2.5,17.7,18.4,31.6,36.3,31.6h6.3c20,0,36.3-16.1,36.3-36V524.4C1001,516,998,507.8,993.2,502.3z M912,482.8
		c-6.1,12.8-18.7,20.7-32.9,20.7H701.8c-20,0-36.3-16.1-36.3-36V365.3c0-19.8,16.3-36,36.3-36h91.1c10.8,0,21,4.7,27.9,12.9
		L907,444.6C916.2,455.4,918.1,470.1,912,482.8z"/>
	<path id="XMLID_43_" d="M582.9,759.9H327.3c-17.6,0-33.2-13.9-35.7-31.6c-7-51.2-47.4-85.5-100.5-85.5s-93.5,34.3-100.5,85.5
		C88.3,746,72.6,759.9,55,759.9H34.7C15,759.9-1,743.8-1,724V212.3c0-19.8,16-36,35.8-36h548.2c19.7,0,35.8,16.1,35.8,36V724
		C618.7,743.8,602.7,759.9,582.9,759.9z"/>
	<path id="XMLID_38_" d="M194.4,822.9L194.4,822.9c-7.4,0-14.8-0.8-22.2-2.3c-39.1-8.1-70.9-39.5-79.1-78.2
		c-6.6-30.8,1-62.3,20.8-86.4c19.8-24.2,49.1-38,80.5-38c57.1,0,103.6,46,103.6,102.5c0,27.3-10.8,53.1-30.4,72.4
		C248,812.2,222,822.9,194.4,822.9z M194.3,649c-21.8,0-42.3,9.7-56.1,26.5c-13.8,16.8-19.1,38.9-14.4,60.5
		c5.7,26.8,27.8,48.6,54.9,54.3c5.2,1.1,10.5,1.6,15.7,1.6c19.3,0,37.4-7.4,51.1-21s21.2-31.5,21.2-50.5
		C266.6,681,234.2,649,194.3,649z M194.3,761.5c-22.9,0-41.5-18.4-41.5-41.1c0-22.6,18.6-41.1,41.5-41.1c22.9,0,41.5,18.4,41.5,41.1
		C235.9,743.1,217.2,761.5,194.3,761.5z M194.3,710.4c-5.6,0-10.2,4.5-10.2,10.1c0,5.6,4.6,10.1,10.2,10.1s10.2-4.5,10.2-10.1
		C204.6,714.9,200,710.4,194.3,710.4z"/>
</g>
</svg>
