<svg xmlns="http://www.w3.org/2000/svg" width="32" height="32" viewBox="0 0 32 32"><path d="M22.376 18.312c-.875-.656-2.78-2-2.78-2.906 0-1.063.28-1.578 1.874-2.813 1.656-1.28 2.78-2.97 2.78-5.047 0-2.266-.905-4.328-2.655-5.328h2.47l2.124-2.22H16.75C11.95 0 7.965 3.53 7.965 7.406c0 3.97 2.61 7.14 7.128 7.14.313 0 .607-.015.906-.046-.3.562-.5 1.186-.5 1.843 0 1.094.595 1.734 1.345 2.453-.562 0-1.096.016-1.708.016-5.484 0-9.312 3.78-9.312 7.39 0 3.58 4.625 5.798 10.112 5.798 6.253 0 10.096-3.547 10.096-7.11 0-2.858-.625-4.296-3.656-6.577zm-5.47-5.218c-2.55-.062-4.957-2.406-5.395-5.75-.436-3.328 1.27-5.875 3.8-5.812 2.566.078 4.722 2.812 5.16 6.156s-1.03 5.484-3.563 5.406zm-1 17.328c-3.782 0-6.52-2.39-6.52-5.266 0-2.828 3.207-5.266 6.99-5.22.907 0 1.72.142 2.47.392 2.063 1.422 3.72 2.328 4.125 3.953.095.33.126.657.126 1.017 0 2.875-1.844 5.125-7.19 5.125z"/></svg>