<svg id="Layer_1" data-name="Layer 1" xmlns="http://www.w3.org/2000/svg" viewBox="0 0 969.94 989.85"><title>google</title><path d="M976,406.85H510.27V600H780C769.53,661.67,733,718.25,681,752.8c-32.74,22-70.32,36.17-108.92,43-39,6.67-79.21,7.48-118-.4A292.68,292.68,0,0,1,344,747.95c-52.54-37-92.75-91.13-113.36-152-21-61.83-21.22-130.94,0-192.78a305.79,305.79,0,0,1,71.74-116.6c40-40.82,91.94-70.12,147.71-82a292.59,292.59,0,0,1,145.29,5.86A269.36,269.36,0,0,1,702,273.08c30.51-30.31,60.62-60.62,91.13-90.93,16-16.37,32.74-31.93,48.09-48.7C795.19,90.81,741,56.46,682,34.84,575.74-4.36,455.71-5.17,348.61,32,227.77,73.23,125.12,163.36,68.13,277.53A491.23,491.23,0,0,0,25.09,402c-21.82,107.3-6.67,221.87,43,319.88A499.89,499.89,0,0,0,202.51,887.18a492.72,492.72,0,0,0,179.84,90.73c82.45,22,170.14,21.62,253.2,2.63,75-17.18,145.9-53.14,202.68-105.48,59.81-55,102.65-127.51,125.28-205.51C988,584.68,991.4,493.95,976,406.85Z" transform="translate(-15.37 -4.76)" style="fill:#fff"/></svg>