<svg id="Layer_1" data-name="Layer 1" xmlns="http://www.w3.org/2000/svg" viewBox="0 0 982.08 982.08"><title>guest_user</title><circle cx="491.04" cy="491.04" r="485.04" style="fill:#f7f4f7;stroke:#c9b5c4;stroke-miterlimit:10;stroke-width:12px"/><path d="M494.11,230.54c-62.18,0-113,39.57-113,113,0,49.14,22.86,100.07,56.52,128.36v25.91c0,11.3-7.65,21.08-17.07,23C347,543.42,286.86,592.05,286.86,620.32v34.15c0,35.8,92.32,65.94,207.25,65.94s207.25-30.15,207.25-65.94V620.32c0-26.38-58.29-76.9-133.65-99.51-9.42-1.88-17.07-13.54-17.07-23V471.94c33.66-28.28,56.52-79.22,56.52-128.36C607.16,270.1,556.29,230.54,494.11,230.54Z" transform="translate(-9 -9.96)" style="fill:#fff;stroke:#c9b5c4;stroke-miterlimit:10;stroke-width:12px"/></svg>