<?xml version="1.0" encoding="utf-8"?>
<!-- Generator: Adobe Illustrator 19.0.0, SVG Export Plug-In . SVG Version: 6.00 Build 0)  -->
<svg version="1.1" id="Layer_1" xmlns="http://www.w3.org/2000/svg" xmlns:xlink="http://www.w3.org/1999/xlink" x="0px" y="0px"
	 viewBox="0 0 1000 1000" style="enable-background:new 0 0 1000 1000;" xml:space="preserve">
<g id="XMLID_52_">
	<polygon id="XMLID_59_" points="123.1,511.7 125.1,841 484.6,999.7 482.5,656.3 	"/>
	<path id="XMLID_56_" d="M484.6,672.7c-1.6,0-3.3-0.3-4.8-1L118.3,520.3c-4.8-2-7.8-6.8-7.6-11.9c0.2-5.2,3.6-9.7,8.5-11.3
		l367-119.9c2.6-0.9,5.4-0.8,8,0.1L812,490c4.7,1.7,7.9,6,8.2,11c0.3,5-2.4,9.6-6.9,11.8L490,671.4
		C488.3,672.3,486.4,672.7,484.6,672.7z M158.7,510.3l325.5,136.3l291.8-143.2L490,402.1L158.7,510.3z"/>
	<polygon id="XMLID_55_" points="817.9,853.1 484.6,999.7 482.5,656.3 813.9,507.7 	"/>
	<path id="XMLID_54_" d="M632.8,593.7c-1.7,0-3.5-0.4-5.2-1.1L334,458.1c-6.2-2.8-9-10.2-6.1-16.4c2.9-6.2,10.2-9,16.4-6.1L638,570
		c6.2,2.9,9,10.2,6.1,16.4C642,591,637.5,593.7,632.8,593.7z"/>
	<path id="XMLID_53_" d="M269.7,159.6l269-157.4c5.7-3.4,12.8-3.4,18.6-0.1c5.8,3.3,9.3,9.5,9.3,16.1l0.1,71.1l0.7,0.2
		c6.7,1.9,13.9,3.9,22.5,6.5c27.9,8.3,56.6,19.1,90.3,33.9c29.2,12.8,57.8,29.4,85,49.3c19.4,14.2,37.7,30.5,54.3,48.6
		c45.2,49.2,69.9,114.5,67.9,179.2c-0.4,11.3-1.6,22.2-2.8,31.4c-1.2,9.1-8.8,16-18,16.2h-0.4c-9,0-16.7-6.5-18.3-15.3
		c-5-28.3-13-51.5-24.4-71c-14.3-24.4-33.6-44.8-56-59.2c-19.2-12.3-39.6-21.8-62.2-28.9c-26.3-8.3-55.4-13.5-88.8-16
		c-13.5-1-28-1.5-45.7-1.5l-3.2,0l-0.1,67c0,6.6-3.5,12.7-9.3,16.1c-5.7,3.3-12.8,3.3-18.5,0.1L269.9,191.8c-5.8-3.3-9.3-9.4-9.4-16
		C260.5,169.1,264,162.9,269.7,159.6z"/>
</g>
</svg>
