<svg xmlns="http://www.w3.org/2000/svg" viewBox="0 0 1000 978.4031"><path d="M939.795 71.752C896.78 25.482 831.895 0 757.098 0c-43.172 0-97.94 18.31-162.778 54.422-48.037 26.753-84.05 53.897-84.41 54.17-2.534 1.918-6.144 3.017-9.903 3.018-3.758 0-7.367-1.1-9.903-3.02-.357-.27-36.375-27.414-84.416-54.168C340.844 18.31 286.075 0 242.902 0c-74.8 0-139.684 25.485-182.698 71.762C14.726 120.708-5.15 188.968 1.132 274.642 11.502 416.478 96.63 577.11 254.157 752.076c114.81 127.52 218.33 208.676 219.36 209.48 7.05 5.498 15.2 11.842 18.108 14.095 2.287 1.775 5.264 2.753 8.384 2.753 3.117 0 6.095-.977 8.383-2.75 2.91-2.257 11.057-8.6 18.105-14.098 1.032-.805 104.536-81.96 219.345-209.48C903.37 577.108 988.5 416.476 998.868 274.645c6.28-85.69-13.593-153.953-59.073-202.893zm14.617 199.646c-4.792 65.498-31.075 140.147-78.12 221.874-37.784 65.64-88.942 135.91-152.054 208.856C616.64 826.49 510.228 916.624 509.168 917.52c-2.36 1.99-5.7 3.13-9.163 3.13s-6.802-1.14-9.16-3.128c-1.063-.895-107.387-90.9-214.984-215.223-63.135-72.95-114.313-143.232-152.114-208.893-47.07-81.76-73.365-156.455-78.158-222.01-5.33-72.835 10.574-129.79 47.27-169.28 34.5-37.1 87.787-57.534 150.044-57.534 97.71 0 225.327 109.47 226.604 110.577 6.31 5.463 14.86 15.626 18.673 22.193 2.883 4.966 7.194 7.814 11.828 7.814 4.634 0 8.945-2.848 11.83-7.814 3.81-6.563 12.362-16.727 18.675-22.193 1.278-1.106 128.892-110.577 226.585-110.577 62.274 0 115.56 20.43 150.042 57.525 36.698 39.484 52.603 96.44 47.272 169.29z"/></svg>