<svg xmlns="http://www.w3.org/2000/svg" viewBox="0 0 1000 978.1848"><path d="M940.548 70.855C898.072 25.165 833.863 0 759.725 0c-103.043 0-246.63 108.665-246.63 108.665-7.197 5.447-18.977 5.447-26.173 0 0 0-143.604-108.665-246.647-108.665-74.122 0-138.347 25.166-180.823 70.864-44.924 48.35-64.56 116.01-58.323 201.105 10.39 142.127 95.954 303.375 254.31 479.264 117.023 129.978 220.948 211.01 220.948 211.01 7.116 5.55 15.346 11.956 18.283 14.233 2.934 2.277 7.742 2.277 10.68 0 2.936-2.277 11.162-8.682 18.278-14.233 0 0 103.91-81.032 220.93-211.01 158.358-175.89 243.923-337.137 254.313-479.265 6.24-85.105-13.398-152.772-58.322-201.115z"/></svg>