<svg id="Layer_1" data-name="Layer 1" xmlns="http://www.w3.org/2000/svg" viewBox="0 0 984.25 856.12"><defs></defs><title>mailbox</title><path style="fill:#020202" d="M223.18,71.78v0.78C120.12,80.46,38.63,166.66,38.63,271.7V662.57c-17,6.82-30.76,20.41-30.76,39.74A46.37,46.37,0,0,0,54,748.45H506.16V927.89h30.76V748.45h63.56V927.89h30.76V748.45H946a46.37,46.37,0,0,0,46.14-46.14c0-19.33-13.74-32.92-30.76-39.74V271.7c0-110.23-89.7-199.93-199.93-199.93H238.56c-2.59,0-5.12.29-7.69,0.39C228.3,72.07,225.77,71.78,223.18,71.78Zm106.06,30.76h432.2A169,169,0,0,1,930.61,271.7V671.56A15.38,15.38,0,0,0,946,686.93a15.38,15.38,0,0,1,0,30.76H54a15.38,15.38,0,0,1,0-30.76,15.38,15.38,0,0,0,15.38-15.38V271.7A168.79,168.79,0,0,1,230.87,102.92,168.79,168.79,0,0,1,392.35,271.7V671.56a15.38,15.38,0,0,0,30.76,0V271.7C423.11,200.45,385.52,137.95,329.24,102.53Zm263,153.79a30.76,30.76,0,1,0,26.58,46.14H746.06V410.11a15.38,15.38,0,0,0,15.38,15.38h76.89a15.38,15.38,0,0,0,15.38-15.38v-123a15.38,15.38,0,0,0-15.38-15.38H618.89A30.76,30.76,0,0,0,592.27,256.32Zm-446,30.76a15.38,15.38,0,0,0-.44,30.76H300.07a15.38,15.38,0,1,0,.44-30.76H146.28Zm630.54,15.38H823v92.27H776.82V302.46ZM100.15,656.18a15.38,15.38,0,1,0,15.38,15.38A15.38,15.38,0,0,0,100.15,656.18Zm61.52,0A15.38,15.38,0,1,0,177,671.56,15.38,15.38,0,0,0,161.66,656.18Zm61.52,0a15.38,15.38,0,1,0,15.38,15.38A15.38,15.38,0,0,0,223.18,656.18Zm61.52,0a15.38,15.38,0,1,0,15.38,15.38A15.38,15.38,0,0,0,284.69,656.18Zm61.52,0a15.38,15.38,0,1,0,15.38,15.38A15.38,15.38,0,0,0,346.21,656.18Zm123,0a15.38,15.38,0,1,0,15.38,15.38A15.38,15.38,0,0,0,469.24,656.18Zm61.52,0a15.38,15.38,0,1,0,15.38,15.38A15.38,15.38,0,0,0,530.76,656.18Zm61.52,0a15.38,15.38,0,1,0,15.38,15.38A15.38,15.38,0,0,0,592.27,656.18Zm61.52,0a15.38,15.38,0,1,0,15.38,15.38A15.38,15.38,0,0,0,653.79,656.18Zm61.52,0a15.38,15.38,0,1,0,15.38,15.38A15.38,15.38,0,0,0,715.31,656.18Zm61.52,0a15.38,15.38,0,1,0,15.38,15.38A15.38,15.38,0,0,0,776.82,656.18Zm61.52,0a15.38,15.38,0,1,0,15.38,15.38A15.38,15.38,0,0,0,838.34,656.18Zm61.52,0a15.38,15.38,0,1,0,15.38,15.38A15.38,15.38,0,0,0,899.85,656.18Z" transform="translate(-7.87 -71.78)"/></svg>