<svg id="Layer_1" data-name="Layer 1" xmlns="http://www.w3.org/2000/svg" viewBox="0 0 890.39 989.29"><title>men_1</title><g id="_Group_" data-name=" Group "><g id="_Group_2" data-name=" Group 2"><path id="_Path_" data-name=" Path " d="M873.88,989.29V807.92C873.88,707.75,791.44,676,692.51,643c0,0-148.38-49.43-148.38-82.43H346.25c0,33-148.39,82.44-148.39,82.44-98.93,33-181.37,64.71-181.37,164.88V989.29H873.88Z" transform="translate(0.02 0)" style="fill:#f3e26a"/></g><g id="_Group_3" data-name=" Group 3"><polygon id="_Path_2" data-name=" Path 2" points="577.11 593.58 445.2 725.48 313.3 593.58 346.27 560.6 544.13 560.6 577.11 593.58" style="fill:#fff"/></g><g id="_Group_4" data-name=" Group 4"><g id="_Group_5" data-name=" Group 5"><polygon id="_Path_3" data-name=" Path 3" points="247.34 989.29 181.39 989.29 181.39 659.53 247.34 626.55 247.34 989.29" style="fill:#fff"/></g><g id="_Group_6" data-name=" Group 6"><rect id="_Path_4" data-name=" Path 4" x="164.9" y="659.53" width="32.98" height="329.76" style="fill:#616666"/></g><g id="_Group_7" data-name=" Group 7"><rect id="_Path_5" data-name=" Path 5" x="230.85" y="626.55" width="32.98" height="362.74" style="fill:#616666"/></g></g><g id="_Group_8" data-name=" Group 8"><g id="_Group_9" data-name=" Group 9"><polygon id="_Path_6" data-name=" Path 6" points="643.06 989.29 709.01 989.29 709.01 659.53 643.06 626.55 643.06 989.29" style="fill:#fff"/></g><g id="_Group_10" data-name=" Group 10"><rect id="_Path_7" data-name=" Path 7" x="692.52" y="659.53" width="32.98" height="329.76" style="fill:#616666"/></g><g id="_Group_11" data-name=" Group 11"><rect id="_Path_8" data-name=" Path 8" x="626.57" y="626.55" width="32.98" height="362.74" style="fill:#616666"/></g></g><g id="_Group_12" data-name=" Group 12"><path id="_Path_9" data-name=" Path 9" d="M445.18,742a16.43,16.43,0,0,1-11.66-4.83L301.62,605.23l23.31-23.31L445.18,702.16,565.43,581.92l23.31,23.31L456.84,737.14A16.43,16.43,0,0,1,445.18,742Z" transform="translate(0.02 0)" style="fill:#616666"/></g><g id="_Group_13" data-name=" Group 13"><g id="_Group_14" data-name=" Group 14"><polygon id="_Path_10" data-name=" Path 10" points="527.64 774.95 445.2 725.48 362.76 774.95 313.3 774.95 313.3 676.02 362.76 676.02 445.2 725.48 527.64 676.02 577.11 676.02 577.11 774.95 527.64 774.95" style="fill:#bde5eb"/></g><g id="_Group_15" data-name=" Group 15"><path id="_Compound_Path_" data-name=" Compound Path " d="M577.13,791.43h-49.5a16.46,16.46,0,0,1-8.48-2.35l-74-44.38-74,44.38a16.46,16.46,0,0,1-8.48,2.35H313.28A16.48,16.48,0,0,1,296.79,775V676a16.48,16.48,0,0,1,16.47-16.49h49.48a16.46,16.46,0,0,1,8.48,2.35l74,44.38,74-44.38a16.46,16.46,0,0,1,8.48-2.35h49.43A16.48,16.48,0,0,1,593.62,676v98.95a16.48,16.48,0,0,1-16.47,16.49h0Zm-44.89-33h28.4v-66h-28.4l-55,33Zm-202.43,0h28.32l55-33-55-33h-28.4v66h0.08Z" transform="translate(0.02 0)" style="fill:#616666"/></g></g><g id="_Group_16" data-name=" Group 16"><rect id="_Path_11" data-name=" Path 11" x="428.71" y="791.43" width="32.98" height="32.98" style="fill:#616666"/></g><g id="_Group_17" data-name=" Group 17"><rect id="_Path_12" data-name=" Path 12" x="428.71" y="857.39" width="32.98" height="32.98" style="fill:#616666"/></g><g id="_Group_18" data-name=" Group 18"><rect id="_Path_13" data-name=" Path 13" x="428.71" y="923.34" width="32.98" height="32.98" style="fill:#616666"/></g><g id="_Group_19" data-name=" Group 19"><path id="_Path_14" data-name=" Path 14" d="M33,989.29H0V807.92C0,691.61,102.32,657.5,192.62,627.4c68.13-22.72,132.28-54.5,137.28-68l32.81,1.2c0,37.07-86.82,73.8-159.67,98.08C100.33,692.93,33,721.82,33,807.92V989.29Z" transform="translate(0.02 0)" style="fill:#616666"/></g><g id="_Group_20" data-name=" Group 20"><path id="_Path_15" data-name=" Path 15" d="M890.37,989.29h-33V807.92c0-86.1-67.35-115-170.1-149.24-72.84-24.28-159.66-61-159.66-98.08h33a3.51,3.51,0,0,0-.16-1.2c5,13.5,69.16,45.28,137.28,68,90.3,30.1,192.64,64.21,192.64,180.52V989.29Z" transform="translate(0.02 0)" style="fill:#616666"/></g><g id="_Group_21" data-name=" Group 21"><path id="_Path_16" data-name=" Path 16" d="M626.55,148.39v280.3c0,82.44-66,164.88-181.37,164.88S263.81,511.13,263.81,428.69V148.39H626.55Z" transform="translate(0.02 0)" style="fill:#fff"/></g><g id="_Group_22" data-name=" Group 22"><path id="_Path_17" data-name=" Path 17" d="M263.81,164.88V82.44l-33-33v-33H560.6a66,66,0,0,1,66,66V197.86l-82.44-33H379.23l-49.46-33-16.49,33H263.81v0Z" transform="translate(0.02 0)" style="fill:#a69692"/></g><g id="_Group_23" data-name=" Group 23"><path id="_Compound_Path_2" data-name=" Compound Path 2" d="M626.55,214.34a16.39,16.39,0,0,1-6.12-1.18l-79.49-31.8H379.23a16.5,16.5,0,0,1-9.1-2.75l-34-22.63L328,172.25a16.5,16.5,0,0,1-14.75,9.11H263.81a16.48,16.48,0,0,1-16.49-16.47V89.27L219.18,61.12a16.49,16.49,0,0,1-4.83-11.66v-33A16.48,16.48,0,0,1,230.84,0H560.6A82.54,82.54,0,0,1,643,82.44V197.86A16.49,16.49,0,0,1,626.55,214.34Zm-242.33-66H544.13a16.59,16.59,0,0,1,6.1,1.27l59.83,23.93V82.44A49.52,49.52,0,0,0,560.6,33H247.33v9.63l28.15,28.15a16.49,16.49,0,0,1,4.83,11.66v66h22.82l11.93-23.86A16.49,16.49,0,0,1,339,118.22Z" transform="translate(0.02 0)" style="fill:#616666"/></g><g id="_Group_24" data-name=" Group 24"><path id="_Path_18" data-name=" Path 18" d="M527.63,461.67l-33-66H412.21l-33,66s-115.4-49.47-115.4-164.88v131.9c0,82.44,66,164.88,181.37,164.88s181.37-82.44,181.37-164.88V296.79C626.55,412.2,527.63,461.67,527.63,461.67Z" transform="translate(0.02 0)" style="fill:#a69692"/></g><g id="_Group_25" data-name=" Group 25"><path id="_Path_19" data-name=" Path 19" d="M527.64,478.16a16.49,16.49,0,0,1-14.77-9.11l-28.42-56.84H422.4L394,469.05a16.5,16.5,0,0,1-21.24,7.78c-5.12-2.22-125.41-55.22-125.41-180h33c0,80.36,63.1,126,91.67,142.54l25.49-51a16.5,16.5,0,0,1,14.75-9.11h82.44a16.5,16.5,0,0,1,14.75,9.11l25,49.92c25.34-17.57,75.71-62.42,75.71-141.47h33c0,124.18-103.63,177.42-108,179.63A16.4,16.4,0,0,1,527.64,478.16Z" transform="translate(0.02 0)" style="fill:#616666"/></g><g id="_Group_26" data-name=" Group 26"><path id="_Path_20" data-name=" Path 20" d="M445.18,610.06c-128.5,0-197.85-93.45-197.85-181.37V197.86h33V428.69c0,71.93,57.79,148.39,164.88,148.39s164.86-76.47,164.86-148.39V230.83h33V428.69C643,516.61,573.69,610.06,445.18,610.06Z" transform="translate(0.02 0)" style="fill:#616666"/></g><g id="_Group_27" data-name=" Group 27"><path id="_Compound_Path_3" data-name=" Compound Path 3" d="M362.74,346.25a66,66,0,1,1,66-66h0A66,66,0,0,1,362.74,346.25Zm0-98.93a33,33,0,1,0,33,33,33,33,0,0,0-33-33h0Z" transform="translate(0.02 0)" style="fill:#616666"/></g><g id="_Group_28" data-name=" Group 28"><path id="_Compound_Path_4" data-name=" Compound Path 4" d="M527.63,346.25a66,66,0,1,1,66-66h0A66,66,0,0,1,527.63,346.25Zm0-98.93a33,33,0,1,0,33,33,33,33,0,0,0-33-33h0Z" transform="translate(0.02 0)" style="fill:#616666"/></g><g id="_Group_29" data-name=" Group 29"><rect id="_Path_21" data-name=" Path 21" x="263.83" y="263.81" width="49.46" height="32.98" style="fill:#616666"/></g><g id="_Group_30" data-name=" Group 30"><rect id="_Path_22" data-name=" Path 22" x="577.11" y="263.81" width="49.46" height="32.98" style="fill:#616666"/></g><g id="_Group_31" data-name=" Group 31"><rect id="_Path_23" data-name=" Path 23" x="412.22" y="263.81" width="65.95" height="32.98" style="fill:#616666"/></g></g></svg>