<?xml version="1.0" encoding="utf-8"?>
<!-- Generator: Adobe Illustrator 19.2.1, SVG Export Plug-In . SVG Version: 6.00 Build 0)  -->
<svg version="1.1" id="Layer_1" xmlns="http://www.w3.org/2000/svg" xmlns:xlink="http://www.w3.org/1999/xlink" x="0px" y="0px"
	 viewBox="0 0 462.7 330.7" style="enable-background:new 0 0 462.7 330.7;" xml:space="preserve">
<path fill="#F9F9F9" d="M462.3,286.3c0,24.3-19.7,44-44,44h-374c-24.3,0-44-19.7-44-44v-242c0-24.3,19.7-44,44-44h374
	c24.3,0,44,19.7,44,44V286.3z"/>
<g id="g3110">
	<path fill="#F79F1A" d="M400,137.2c0,56.3-45.5,101.9-101.7,101.9s-101.7-45.6-101.7-101.9S242.1,35.3,298.3,35.3S400,80.9,400,137.2
		L400,137.2z"/>
	<path fill="#EA001B" d="M274.5,137.2c0,56.3-45.5,101.9-101.7,101.9S71.1,193.5,71.1,137.2S116.6,35.3,172.8,35.3
		S274.5,80.9,274.5,137.2L274.5,137.2z"/>
	<path fill="#FF5F01" d="M235.6,57c-23.7,18.7-39,47.6-39,80.2s15.2,61.6,39,80.2c23.7-18.7,39-47.7,39-80.2S259.3,75.6,235.6,57z"/>
</g>
<path d="M106.3,291.1h-5.5v-25.6h5.4v3.1c0,0,4.7-3.8,7.5-3.8c5.5,0.1,8.7,4.7,8.7,4.7s2.7-4.7,8.6-4.7c8.8,0,10.1,8.1,10.1,8.1V291
	h-5.3v-15.9c0,0,0-4.8-5.7-4.8c-5.9,0-6.5,4.8-6.5,4.8V291h-5.5v-16c0,0-0.6-5-5.5-5c-6.4,0-6.5,5.2-6.5,5.2L106.3,291.1z
	 M273.2,264.8c-2.8-0.1-7.5,3.8-7.5,3.8v-3.1h-5.4v25.6h5.5l-0.1-16c0,0,0.1-5.2,6.5-5.2c1.2,0,2.1,0.3,2.9,0.7l0,0l1.8-5
	C275.8,265.2,274.6,264.9,273.2,264.8z M350.5,264.8c-2.8-0.1-7.5,3.8-7.5,3.8v-3.1h-5.4v25.6h5.5l-0.1-16c0,0,0.1-5.2,6.5-5.2
	c1.2,0,2.1,0.3,2.9,0.7l0,0l1.8-5C353.1,265.2,351.8,264.9,350.5,264.8L350.5,264.8z M158.9,264.7c-8.2,0-12.6,7.4-12.6,13.6
	c0,6.3,4.9,13.6,12.8,13.6c4.6,0,8.4-3.4,8.4-3.4v2.6h5.4v-25.6h-5.4v3.2C167.5,268.7,164,264.7,158.9,264.7L158.9,264.7z M160,270
	c4.4,0,8,3.8,8,8.6s-3.6,8.5-8,8.5s-8-3.8-8-8.5S155.5,270,160,270z M316.4,264.7c-8.2,0-12.6,7.4-12.6,13.6
	c0,6.3,4.9,13.6,12.8,13.6c4.6,0,8.4-3.4,8.4-3.4v2.6h5.4v-25.6H325v3.2C325,268.7,321.4,264.7,316.4,264.7L316.4,264.7z M317.5,270
	c4.4,0,8,3.8,8,8.6s-3.6,8.5-8,8.5s-8-3.8-8-8.5S313.1,270,317.5,270z M368.3,264.7c-8.2,0-12.6,7.4-12.6,13.6
	c0,6.3,4.9,13.6,12.8,13.6c4.6,0,8.4-3.4,8.4-3.4v2.6h5.4v-35.7h-5.4v13.3C376.8,268.7,373.3,264.7,368.3,264.7L368.3,264.7z
	 M369.3,270c4.4,0,8,3.8,8,8.6s-3.6,8.5-8,8.5s-8-3.8-8-8.5S364.9,270,369.3,270z M189.4,292c-5.6,0-10.7-3.4-10.7-3.4l2.4-3.7
	c0,0,4.9,2.3,8.4,2.3c2.3,0,6.1-0.7,6.1-3c0.1-2.4-6.4-3.1-6.4-3.1s-9.6-0.1-9.6-8.1c0-5,4.8-8.2,11-8.2c3.5,0,10.2,3.1,10.2,3.1
	l-2.7,4.2c0,0-5.2-2-7.9-2.2c-2.3-0.1-5,1-5,3c0,5.4,16-0.4,16,10.5C201.1,290.6,194.6,292,189.4,292L189.4,292z M210,258.1v7.4
	h-4.8v5.4h4.8v12.9c0,0-0.4,8.7,8.9,8.7c2.6,0,7.6-1.9,7.6-1.9l-2.2-5.6c0,0-2,1.7-4.3,1.7c-4.3-0.1-4.2-2.9-4.2-2.9v-12.9h8.9v-5.4
	h-8.9v-7.4L210,258.1L210,258.1z M242.5,265.1c-8.8,0-13.2,7.3-13.2,13.6c0.1,6.5,4,13.7,13.7,13.7c4.2,0,10-3.7,10-3.7l-2.5-4.4
	c0,0-4,2.8-7.5,2.8c-7,0-7.4-6.8-7.4-6.8h18.7C254.3,280.3,255.7,265.1,242.5,265.1z M241.7,270.1c0.2,0,0.4,0,0.7,0
	c6.6,0,6.5,6.2,6.5,6.2h-13.3C235.6,276.3,235.3,270.4,241.7,270.1z M298.2,284.3l2.5,5c0,0-4,2.6-8.4,2.6c-9.3,0-14.4-7-14.4-13.5
	c0-10.4,8.1-13.4,13.7-13.4c5,0,9.4,2.9,9.4,2.9l-2.8,5c0,0-1.7-2.7-6.7-2.7s-7.6,4.3-7.6,8.4c0,4.5,3,8.4,7.7,8.4
	C295.1,287,298.2,284.3,298.2,284.3L298.2,284.3z"/>
</svg>
