<svg id="Layer_1" data-name="Layer 1" xmlns="http://www.w3.org/2000/svg" viewBox="0 0 908.74 987.85"><title>men</title><path d="M296.37,59.5S328.43,178,454.37,178s158-118.5,158-118.5" transform="translate(0 0)" style="fill:none;stroke:#c71c8d;stroke-miterlimit:10;stroke-width:40px"/><path d="M730.74,967.85H177.88V99l118.5-39.5S400.71,20,454.38,20s158,39.5,158,39.5L730.76,99V967.85h0Z" transform="translate(0 0)" style="fill:none;stroke:#7e7e7e;stroke-miterlimit:10;stroke-width:40px"/><path d="M730.74,99s67.47,18.61,118.5,98.69c29,45.62,39.5,177.71,39.5,177.71v39.5h-158" transform="translate(0 0)" style="fill:none;stroke:#7e7e7e;stroke-miterlimit:10;stroke-width:40px"/><path d="M177.88,99a183.93,183.93,0,0,0-118.5,98.69C24.11,272.6,20,375.49,20,375.49V415H177.88" transform="translate(0 0)" style="fill:none;stroke:#7e7e7e;stroke-miterlimit:10;stroke-width:40px"/></svg>
