<svg id="Layer_1" data-name="Layer 1" xmlns="http://www.w3.org/2000/svg" viewBox="0 0 900.01 999.4"><title>no_order</title><path d="M96.43,0V773.73H0V886.56C0,948.69,50.56,999.4,112.5,999.4h675c61.94,0,112.5-50.71,112.5-112.84V0Zm32.14,32.24H867.83V886.56a80.36,80.36,0,1,1-160.71,0V773.73H128.57ZM305.35,217.61a24.18,24.18,0,1,0,24.11,24.25v-.07a24.14,24.14,0,0,0-24.1-24.18Zm80.35,8.06v32.24H707.12V225.67Zm-80.35,120.9a24.18,24.18,0,1,0,24.11,24.25v-.07a24.14,24.14,0,0,0-24.1-24.18Zm80.35,8.06v32.24H707.12V354.63ZM305.35,475.52a24.18,24.18,0,1,0,24.11,24.25v-.07a24.14,24.14,0,0,0-24.1-24.18Zm80.35,8.06v32.24H707.12V483.58Zm-80.35,120.9a24.18,24.18,0,1,0,24.11,24.25v-.07a24.14,24.14,0,0,0-24.1-24.18Zm80.35,8.06v32.24H707.12V612.54ZM32.15,806H675v80.6a112.33,112.33,0,0,0,34.31,80.6H112.5a80.22,80.22,0,0,1-80.35-80.09q0-.26,0-.51Zm32.14,32.24a16.12,16.12,0,1,0,16.07,16.17v0A16.1,16.1,0,0,0,64.29,838.21Zm64.28,0a16.12,16.12,0,1,0,16.07,16.17v0A16.1,16.1,0,0,0,128.57,838.21Zm64.28,0a16.12,16.12,0,1,0,16.07,16.17v0a16.1,16.1,0,0,0-16.06-16.12Zm64.28,0a16.12,16.12,0,1,0,16.07,16.17v0a16.1,16.1,0,0,0-16.06-16.12Zm64.28,0a16.12,16.12,0,1,0,16.07,16.17v0a16.1,16.1,0,0,0-16.06-16.12Zm64.28,0a16.12,16.12,0,1,0,16.07,16.17v0a16.1,16.1,0,0,0-16.05-16.12Zm64.28,0A16.12,16.12,0,1,0,466,854.38v0a16.1,16.1,0,0,0-16-16.12Zm64.28,0a16.12,16.12,0,1,0,16.07,16.17v0a16.1,16.1,0,0,0-16-16.12Zm64.28,0a16.12,16.12,0,1,0,16.07,16.17v0a16.1,16.1,0,0,0-16-16.12Zm64.28,0a16.12,16.12,0,1,0,16.07,16.17v0a16.1,16.1,0,0,0-16-16.12Z" transform="translate(0.01)"/></svg>