<svg xmlns="http://www.w3.org/2000/svg" viewBox="0 0 1000.0003 1000"><path d="M.207 992.158c-1.106 5.306 2.33 8.74 7.636 7.635l312.266-65.13c5.305-1.105 12.78-5.147 16.614-8.98l660.402-660.4c3.832-3.833 3.832-10.104 0-13.937L748.654 2.874c-3.833-3.832-10.104-3.832-13.937 0l-660.4 660.402c-3.833 3.832-7.875 11.31-8.98 16.615L.206 992.16zM92.23 684.236h.002zm-49.26 280.43c-5.306 1.105-8.74-2.33-7.635-7.636l52.02-249.417c1.108-5.305 6.085-7.892 11.063-5.747l130.527 56.24c4.978 2.143 10.806 7.97 12.95 12.948l56.24 130.528c2.144 4.977-.443 9.955-5.75 11.062l-249.414 52.02zm272.795-56.898zm-52.95-157.632c-2.146-4.978-7.974-10.805-12.95-12.95L111.74 677.674c-4.977-2.144-5.914-7.035-2.08-10.867l513.29-513.29c3.832-3.833 10.103-3.833 13.936 0l209.596 209.596c3.832 3.832 3.832 10.104 0 13.936l-513.29 513.29c-3.833 3.832-8.724 2.895-10.868-2.082l-59.512-138.122zm695.435-498.79c3.833 3.833 3.833 10.104 0 13.937l-78.392 78.392c-3.833 3.833-10.104 3.833-13.937 0L656.326 134.078c-3.833-3.832-3.833-10.103 0-13.936l78.392-78.392c3.833-3.833 10.104-3.833 13.937 0L958.25 251.346z"/></svg>