<svg xmlns="http://www.w3.org/2000/svg" viewBox="0 0 932.0012 1000"><path d="M827.616 696.015c-60.41-51.67-121.72-82.967-181.388-31.376l-35.63 31.18c-26.07 22.634-74.538 128.392-261.935-87.182-187.36-215.3-75.865-248.823-49.757-271.262l35.825-31.22c59.358-51.708 36.957-116.8-5.853-183.807l-25.834-40.587c-43.006-66.85-89.836-110.753-149.35-59.123L121.54 50.738c-26.303 19.16-99.826 81.445-117.66 199.768-21.464 141.973 46.244 304.55 201.368 482.934 154.93 178.46 306.62 268.1 450.31 266.54 119.415-1.288 191.533-65.367 214.09-88.665l32.273-28.137c59.356-51.59 22.477-104.118-37.972-155.904l-36.332-31.26z"/></svg>