<?xml version="1.0" encoding="utf-8"?>
<!-- Generator: Adobe Illustrator 19.0.0, SVG Export Plug-In . SVG Version: 6.00 Build 0)  -->
<svg version="1.1" id="Layer_1" xmlns="http://www.w3.org/2000/svg" xmlns:xlink="http://www.w3.org/1999/xlink" x="0px" y="0px"
	 viewBox="0 0 1000 1000" style="enable-background:new 0 0 1000 1000;" xml:space="preserve">
<g id="XMLID_60_">
	<path id="XMLID_61_" d="M995.1,380.7L620.8,6.5c-6.4-6.4-16.9-6.4-23.4,0L30.3,573.6c-6.4,6.4-12,19.1-12.5,28.2l-18,382
		c-0.4,9.1,6.6,16.2,15.7,15.8l384.1-16c9.1-0.4,21.8-5.9,28.2-12.4l567.2-567.2C1001.5,397.6,1001.5,387.1,995.1,380.7z
		 M273.6,869.6c-41,41-107.1,41.6-147.3,1.4s-39.6-106.3,1.4-147.3S234.7,682,275,722.3C315.2,762.5,314.6,828.6,273.6,869.6z"/>
</g>
</svg>
