<svg id="Layer_1" data-name="Layer 1" xmlns="http://www.w3.org/2000/svg" viewBox="0 0 752.36 989.82"><title>privacy</title><rect x="20" y="415.8" width="712.36" height="554.02" style="fill:none;stroke:#7d7d7d;stroke-miterlimit:10;stroke-width:40px"/><path d="M613.63,415.67V257.45c-0.41-131-106.48-237-237.45-237.45h0c-131,.41-237,106.48-237.45,237.45V415.67" transform="translate(0 0)" style="fill:none;stroke:#7d7d7d;stroke-miterlimit:10;stroke-width:40px"/><circle cx="376.18" cy="692.74" r="158.34" style="fill:none;stroke:#7d7d7d;stroke-miterlimit:10;stroke-width:40px"/><path d="M415.8,692.74a39.21,39.21,0,0,1-15.87-75.24,50,50,0,0,0-23.75-4,79.11,79.11,0,1,0,79.11,79.11h0a50,50,0,0,0-4.13-23.66A37.49,37.49,0,0,1,415.8,692.74Z" transform="translate(0 0)" style="fill:#c61e8d"/></svg>