<svg id="Layer_1" data-name="Layer 1" xmlns="http://www.w3.org/2000/svg" viewBox="0 0 983.87 983.87"><g id="_Group_" data-name="&lt;Group&gt;"><path id="_Compound_Path_" data-name="&lt;Compound Path&gt;" d="M496.89,6.23C225.35,6.23,5,226.49,5,498.16S225.35,990.1,496.89,990.1,988.82,769.86,988.82,498.16,768.37,6.23,496.89,6.23" transform="translate(-4.95 -6.23)"/></g><g id="_Group_2" data-name="&lt;Group&gt;"><path id="_Compound_Path_2" data-name="&lt;Compound Path&gt;" fill="#fff" d="M458.45,536.74l3-3c78.67-1.82,120.43-34.5,120.43-85.33v-1.22c0-43.57-33.9-78.67-88.36-78.67-44.78,0-79.28,21.18-110.15,56.89l-30.87-29.66C387,354,430,325.53,494.77,325.53c81.7,0,135.56,50.83,135.56,119.83v1.21c0,75.65-56.9,113.17-125.88,122.86l-6.05,65.37H467.54Zm-3.63,154.33H510.5v63.55H454.82V691.07Z" transform="translate(-4.95 -6.23)"/></g></svg>