<svg xmlns="http://www.w3.org/2000/svg" xmlns:xlink="http://www.w3.org/1999/xlink" x="0" y="0" version="1.1" viewBox="0 0 24 24" width="1000" height="1000" style="fill: rgb(1, 1, 1);"><g fill="none" stroke="none" stroke-width="1" stroke-linecap="butt" stroke-linejoin="miter" stroke-miterlimit="10" stroke-dasharray="" stroke-dashoffset="0" font-family="sans-serif" font-weight="normal" font-size="12" text-anchor="start" mix-blend-mode="normal"><g><g><path d="M0,24l0,-24l24,0l0,24z" fill="none"/><g fill="#010101"><path d="M12,4c-3.13,0 -5.65625,2.52625 -5.65625,5.65625c0,3.129 2.52625,5.6875 5.65625,5.6875c3.13,0 5.65625,-2.5575 5.65625,-5.6875c0,-3.13 -2.52625,-5.65625 -5.65625,-5.65625z M4,7c-1.657,0 -3,1.343 -3,3c0,1.657 1.343,3 3,3c0.72,0 1.358,-0.2655 1.875,-0.6875c-0.107,-0.248 -0.173,-0.488 -0.25,-0.75c-0.407,0.428 -0.987,0.6875 -1.625,0.6875c-0.881,0 -1.631,-0.512 -2,-1.25l3.46875,0c-0.088,-0.432 -0.125,-0.88575 -0.125,-1.34375c0,-0.75 0.11375,-1.452 0.34375,-2.125c-0.482,-0.33 -1.0595,-0.53125 -1.6875,-0.53125z M20,7c-0.628,0 -1.2055,0.20125 -1.6875,0.53125c0.23,0.673 0.34375,1.375 0.34375,2.125c0,0.458 -0.037,0.91175 -0.125,1.34375l3.46875,0c-0.369,0.738 -1.118,1.25 -2,1.25c-0.638,0 -1.218,-0.2595 -1.625,-0.6875c-0.077,0.262 -0.143,0.502 -0.25,0.75c0.517,0.422 1.155,0.6875 1.875,0.6875c1.657,0 3,-1.343 3,-3c0,-1.657 -1.343,-3 -3,-3z M8.21875,11.5625l7.5625,0c-0.698,1.394 -2.11625,2.34375 -3.78125,2.34375c-1.665,0 -3.08425,-0.94875 -3.78125,-2.34375z M2.3125,13.59375c-1.082,0.284 -1.9235,0.95725 -2.3125,2.40625l6.78125,0c0.334,-0.175 0.6845,-0.33875 1.0625,-0.46875c-0.434,-1.137 -1.19525,-1.6845 -2.15625,-1.9375c-0.501,0.269 -1.0805,0.40625 -1.6875,0.40625c-0.608,0 -1.1865,-0.13825 -1.6875,-0.40625z M18.3125,13.59375c-0.961,0.253 -1.72225,0.8005 -2.15625,1.9375c0.378,0.13 0.7285,0.29375 1.0625,0.46875l6.78125,0c-0.389,-1.449 -1.2305,-2.12225 -2.3125,-2.40625c-0.501,0.268 -1.0795,0.40625 -1.6875,0.40625c-0.607,0 -1.1865,-0.13725 -1.6875,-0.40625z M8.71875,16.3125c-2.108,0.554 -3.743,1.8655 -4.5,4.6875l15.5625,0c-0.757,-2.823 -2.39,-4.1345 -4.5,-4.6875c-0.976,0.523 -2.09725,0.8125 -3.28125,0.8125c-1.182,0 -2.30525,-0.2885 -3.28125,-0.8125z"/></g></g></g></g></svg>