<svg xmlns="http://www.w3.org/2000/svg" viewBox="0 0 971.997 1000"><path d="M783.924 391.962C783.924 175.832 608.09 0 391.962 0S0 175.833 0 391.962c0 216.124 175.833 391.954 391.962 391.954s391.962-175.83 391.962-391.954zm-46.678 0c0 190.386-154.894 345.276-345.284 345.276S46.678 582.348 46.678 391.962c0-190.39 154.894-345.284 345.284-345.284s345.284 154.894 345.284 345.284zM965.172 959.708l-262.22-262.213c-4.397-4.396-10.258-6.802-16.505-6.802s-12.107 2.45-16.502 6.845c-9.1 9.1-9.098 23.966.002 33.066l262.22 262.34c4.396 4.396 10.257 7.056 16.504 7.056h.003c6.245 0 12.105-2.656 16.5-7.05 9.1-9.1 9.098-24.142 0-33.242z"/></svg>