<?xml version="1.0" encoding="utf-8"?>
<!-- Generator: Adobe Illustrator 19.2.1, SVG Export Plug-In . SVG Version: 6.00 Build 0)  -->
<svg version="1.1" id="Layer_1" xmlns="http://www.w3.org/2000/svg" xmlns:xlink="http://www.w3.org/1999/xlink" x="0px" y="0px"
	 viewBox="0 0 1000 1000" style="enable-background:new 0 0 1000 1000;" xml:space="preserve">
<path style="fill:#FFFFFF" d="M716,520.8h-70.2v270.8H541.7V520.8h-62.5v-83.3h62.5v-50.2c0-73.1,30.4-116.5,116.5-116.5h71v83.3h-47.6
	c-33.5,0-35.7,12.5-35.7,35.9v47.4h83.3L716,520.8z"/>
<path style="fill:#6E6E6E;" d="M795.8,415.5V331c0-163.3-132.4-295.8-295.8-295.8S204.2,167.7,204.2,331v84.5h-84.5v549.2h760.5V415.5H795.8z
	 M288.8,331c0-116.5,94.8-211.2,211.2-211.2S711.2,214.5,711.2,331v84.5H288.8V331z M795.8,880.2H204.2V500h591.5V880.2z"/>
<path style="fill:#6E6E6E;" d="M457.8,694.8v100.9h84.5V694.8c12.9-11.6,21.1-28.2,21.1-46.9c0-35-28.4-63.4-63.4-63.4s-63.4,28.4-63.4,63.4
	C436.6,666.6,444.9,683.2,457.8,694.8z"/>
</svg>
