<svg data-name="Layer 1" xmlns="http://www.w3.org/2000/svg" viewBox="0 0 993.1 993.1"><path data-name="&lt;Compound Path&gt;" d="M496.54 0C222.3 0 0 222.33 0 496.55S222.3 993.1 496.55 993.1s496.54-222.32 496.54-496.55S770.82 0 496.54 0zm0 953.37"/><path data-name="&lt;Path&gt;" d="M365.09 720.8c-4.25 0-8.32-4.36-11.32-7.36L205.6 563.94a16.83 16.83 0 0 1 0-23.32 16 16 0 0 1 22.65-.33l136.68 136.52L748.7 282.62a16.014 16.014 0 1 1 23 22.29L376.57 713.29c-3 3.08-7.09 7.51-11.37 7.51h-.11z" fill="#fff"/></svg>
