<svg id="Layer_1" data-name="Layer 1" xmlns="http://www.w3.org/2000/svg" viewBox="0 0 983.12 983.12"><title>term_c</title><path d="M169.28,219.13" transform="translate(-3.12 -7.59)" style="fill:none;stroke:#7d7d7d;stroke-linecap:round;stroke-linejoin:round;stroke-width:60px"/><path d="M441.6,128.36c0-54.46,45.39-90.77,90.77-90.77H114.81c-45.39,0-81.7,40.85-81.7,90.77s36.31,90.77,81.7,90.77H532.37C487,219.13,441.6,182.82,441.6,128.36Z" transform="translate(-3.12 -7.59)" style="fill:none;stroke:#7d7d7d;stroke-linecap:round;stroke-miterlimit:10;stroke-width:60px"/><path d="M169.28,219.13V673c0,113.47,68.08,181.55,136.16,181.55H532.37" transform="translate(-3.12 -7.59)" style="fill:none;stroke:#7d7d7d;stroke-miterlimit:10;stroke-width:60px"/><path d="M668.53,673V219.13c0-113.47-68.08-181.55-136.16-181.55" transform="translate(-3.12 -7.59)" style="fill:none;stroke:#7d7d7d;stroke-linejoin:round;stroke-width:60px"/><line x1="302.32" y1="393.09" x2="529.25" y2="393.09" style="fill:none;stroke:#c9188d;stroke-miterlimit:10;stroke-width:60px"/><line x1="302.32" y1="574.64" x2="529.25" y2="574.64" style="fill:none;stroke:#c9188d;stroke-miterlimit:10;stroke-width:60px"/><rect x="756.19" y="620.03" width="90.77" height="363.09" style="fill:#7d7d7d"/><rect x="620.03" y="756.19" width="363.09" height="90.77" style="fill:#7d7d7d"/></svg>