<svg xmlns="http://www.w3.org/2000/svg" viewBox="0 0 598.4278 1000"><path d="M592.15 230.652l-179.434-65.606c-4.932-1.803-7.5-7.332-5.704-12.287l26.126-72.105c1.795-4.955-.772-10.484-5.704-12.287L242.017.576c-4.933-1.804-10.437.775-12.232 5.73L203.66 78.408c-1.795 4.954-7.3 7.532-12.23 5.73L14.983 19.626c-4.932-1.803-10.437.775-12.232 5.73l-2.18 6.015c-1.794 4.954.772 10.484 5.705 12.287l577.167 211.024c4.932 1.803 10.436-.775 12.23-5.73l2.18-6.015c1.796-4.956-.77-10.485-5.703-12.288zM400.507 95.94l-17.417 48.072c-1.797 4.955-7.3 7.533-12.233 5.73l-137.57-50.298c-4.93-1.804-7.498-7.333-5.702-12.288l17.417-48.07c1.795-4.956 7.3-7.534 12.232-5.73l137.568 50.297c4.932 1.803 7.5 7.332 5.704 12.287zM209.744 421c-7.03 0-14.48 5.726-14.48 12.788v348.455c0 7.06 7.45 12.787 14.48 12.787s14.478-5.726 14.478-12.787V433.788c0-7.062-7.448-12.787-14.478-12.787zM364.176 421c-7.03 0-14.478 5.726-14.478 12.788v348.455c0 7.06 7.45 12.787 14.48 12.787 7.028 0 14.477-5.726 14.477-12.787V433.788c0-7.062-7.45-12.787-14.478-12.787z"/><path d="M520.008 288.526c4.73 0 8.578 3.848 8.578 8.578v662.383c0 4.73-3.848 8.578-8.578 8.578H48.035c-4.73 0-8.578-3.848-8.578-8.578V297.104c0-4.73 3.848-8.578 8.578-8.578h471.973m0-31.935H48.035c-22.375 0-40.513 18.14-40.513 40.514v662.383c0 22.375 18.138 40.513 40.513 40.513h471.973c22.375 0 40.513-18.138 40.513-40.513V297.104c0-22.375-18.137-40.513-40.512-40.513z"/></svg>