<svg xmlns="http://www.w3.org/2000/svg" viewBox="0 0 1000 720.9515"><ellipse cx="750" cy="632.75" rx="88.462" ry="88.201"/><ellipse cx="211.538" cy="632.75" rx="88.462" ry="88.201"/><path d="M346.154 153.394H173.077c-26.923 0-38.462 15.34-57.692 38.35L30.77 306.787S0 348.97 0 383.485v191.742c0 23.01 15.385 38.35 38.46 38.35h38.463c7.692-69.03 65.385-118.882 134.615-118.882s126.923 53.688 134.616 118.88c23.077 0 38.46-19.173 38.46-38.348V191.743c0-23.01-15.383-38.35-38.46-38.35zm-76.923 230.09H65.386c0-11.504 7.692-23.008 15.384-34.513l80.77-111.21s7.69-7.67 15.383-7.67h92.308v153.395zM961.538 0h-500c-23.076 0-38.46 15.34-38.46 38.348v536.88c0 23.01 15.384 38.348 38.46 38.348h153.847c7.692-65.193 65.384-118.88 134.615-118.88 69.23 0 126.923 53.687 134.615 118.88h76.923c23.077 0 38.462-15.34 38.462-38.35V38.35C1000 15.338 984.615 0 961.538 0z"/></svg>