<svg xmlns="http://www.w3.org/2000/svg" viewBox="0 0 933.641 1000"><path d="M636.945 712.81c-19.693 52.31-71.37 123.212-170.136 123.212-98.908 0-150.89-69.333-171.378-122.18C198.142 773.783 0 792.187 0 1000h933.64c0-213.15-197.718-228.113-296.695-287.19z"/><path d="M248.156 400.496c7.353 54.043 29.48 68.795 41.75 68.795 4.917 36.856 22.127 76.147 39.314 100.733 12.27 17.187 17.187 39.315 17.187 61.42 0 19.644 0 6.836-2.46 28.94-2.434 7.166-5.9 13.722-10.23 19.833 4.986 18.92 33.95 108.975 133.092 108.975 101.48 0 128.456-97.383 131.36-109.16-4.543-6.042-8.266-12.528-10.983-19.623-2.458-26.998-2.458-14.213-2.458-36.317 0-19.646 7.35-36.856 17.21-51.608 17.186-24.586 34.396-66.336 39.29-103.19 14.775 0 36.856-14.753 41.773-68.796 2.46-29.48-9.81-46.69-19.646-51.607 24.563-68.796 71.253-282.554-86.004-304.66C560.166 14.75 518.37 0 464.35 0 245.674 4.917 221.11 164.61 267.778 348.89c-7.352 4.94-22.104 22.126-19.622 51.606z"/></svg>