<svg xmlns="http://www.w3.org/2000/svg" width="32" height="32" viewBox="0 0 32 32"><path d="M27.473 22.263a.45.45 0 0 0-.68-.13l-.037.03a.614.614 0 0 0-.147.773l2.608 4.408c.147.248.048.363-.22.255l-6.673-2.7a1.848 1.848 0 0 0-.994-.062l-.673.18c-.28.073-.288.222-.02.33l10.826 4.378c.268.108.367-.007.222-.256l-4.212-7.206zM21.1 24.9l-.89.235c-1.336.293-2.748.453-4.21.453-8.243 0-14.95-5.002-14.95-11.15S7.756 3.29 16 3.29s14.95 5 14.95 11.15c0 2.84-1.435 5.436-3.79 7.407l-.42.327.775.745C30.157 20.74 32 17.63 32 14.44c0-6.727-7.18-12.2-16-12.2S0 7.714 0 14.44c0 6.727 7.177 12.2 16 12.2 2.037 0 3.986-.296 5.78-.828l-.682-.912z"/></svg>