<svg xmlns="http://www.w3.org/2000/svg" width="32" height="32" viewBox="0 0 32 32"><path d="M30.618 15.61a.502.502 0 0 0 .115-.698l-4.665-6.498a.502.502 0 0 0-.698-.115l-6.857 4.922c-.224.16-.304.09-.18-.154l3.835-7.535a.502.502 0 0 0-.22-.673L14.82 1.232a.502.502 0 0 0-.673.22L10.41 8.79c-.124.245-.226.22-.226-.054V.5a.5.5 0 0 0-.5-.5h-8a.5.5 0 0 0-.5.5v31a.5.5 0 0 0 .5.5h8a.5.5 0 0 0 .5-.5v-.718a1.1 1.1 0 0 1 .406-.792l20.028-14.38zm-19.773 9.967c-.125.245-.325.396-.444.336s-.216-.335-.216-.61v-7.416c0-.275.2-.398.446-.273l2.944 1.498a.502.502 0 0 1 .22.673l-2.95 5.792zm.507 2.634c-.224.16-.468.207-.544.102s-.035-.392.09-.637l3.744-7.356c.125-.246.144-.284.043-.086s-.052.544.108.768l1.953 2.72a.5.5 0 0 1-.115.698l-5.278 3.79zM25.14 9.696a.5.5 0 0 1 .698.115l3.5 4.873a.5.5 0 0 1-.116.698l-4.873 3.5a.5.5 0 0 1-.7-.115l-3.498-4.873a.5.5 0 0 1 .115-.698l4.873-3.5zm-6.498 4.666a.5.5 0 0 1 .698.116l3.5 4.873a.5.5 0 0 1-.116.697l-4.467 3.207a.5.5 0 0 1-.698-.115L15.303 20a.902.902 0 0 1-.065-.853l1.65-3.247c.126-.245.41-.577.634-.738l1.116-.802zM14.585 2.797a.502.502 0 0 1 .673-.22L20.605 5.3a.502.502 0 0 1 .22.673l-2.722 5.348a.502.502 0 0 1-.673.22l-5.346-2.722a.502.502 0 0 1-.22-.673l2.722-5.347zm-3.63 7.13a.502.502 0 0 1 .674-.22l5.346 2.72a.502.502 0 0 1 .22.674L14.7 18a.502.502 0 0 1-.672.22l-3.397-1.73a.898.898 0 0 1-.445-.726v-3.822c0-.275.102-.7.227-.946l.545-1.07zM9.186 30.5a.5.5 0 0 1-.5.5h-6a.5.5 0 0 1-.5-.5v-5a.5.5 0 0 1 .5-.5h6a.5.5 0 0 1 .5.5v5zm0-7a.5.5 0 0 1-.5.5h-6a.5.5 0 0 1-.5-.5V17a.5.5 0 0 1 .5-.5h6a.5.5 0 0 1 .5.5v6.5zm0-8.5a.5.5 0 0 1-.5.5h-6a.5.5 0 0 1-.5-.5V9.5a.5.5 0 0 1 .5-.5h6a.5.5 0 0 1 .5.5V15zm0-7.5a.5.5 0 0 1-.5.5h-6a.5.5 0 0 1-.5-.5v-6a.5.5 0 0 1 .5-.5h6a.5.5 0 0 1 .5.5v6z"/></svg>