<svg xmlns="http://www.w3.org/2000/svg" width="32" height="32" viewBox="0 0 32 32"><path d="M.567 14.985l.17.33c.34-.174.686-.346 1.032-.53.77-.413 1.535-.83 2.302-1.242.708-.38 1.418-.758 2.128-1.14.77-.414 1.534-.83 2.3-1.243.708-.38 1.42-.756 2.13-1.136.78-.418 1.56-.836 2.34-1.256.77-.414 1.534-.832 2.3-1.244.69-.37 1.384-.738 2.076-1.108l2.13-1.14 2.3-1.243c.643-.346 1.306-.68 1.957-1.054a.35.35 0 0 1 .157-.06l.022.01c.015.012.047.05.077.12.104.234.226.408.29.553.027.063.03.096.03.103l-.005.015a.36.36 0 0 1-.075.086c-.442.4-.655.955-.655 1.498a2.024 2.024 0 0 0 2.473 1.983.61.61 0 0 1 .126-.016c.056.003.058.008.078.02.02.013.062.057.113.157.077.148.15.303.23.462.025.047.026.068.026.075 0 .006.008.016-.054.085-.26.27-.49.592-.61 1.002a1.97 1.97 0 0 0-.076.545c.002.917.632 1.763 1.57 1.97a2.08 2.08 0 0 0 .967-.012l.057-.008.08.023c.022.016.05.044.076.096.074.15.152.323.267.5.035.056.036.08.037.095l-.016.057-.068.086c-.44.42-.658.97-.657 1.51-.005.82.514 1.626 1.428 1.925.19.062.377.08.553.08.157 0 .307-.015.442-.03.086-.01.15-.015.19-.015l.055.004.003-.013-.006.01.003.003.003-.013-.006.01.004.004a.76.76 0 0 1 .117.163c.083.14.162.28.233.42.04.077.045.12.044.137l-.013.032a.43.43 0 0 1-.126.093c-.942.515-1.9 1.01-2.855 1.522-.96.516-1.91 1.044-2.865 1.557-1.137.61-2.284 1.212-3.426 1.825-1.08.58-2.147 1.17-3.22 1.745-.876.47-1.764.928-2.648 1.4-.837.45-1.664.91-2.494 1.355-.877.47-1.764.93-2.648 1.402-.77.412-1.536.832-2.3 1.248-.146.08-.276.157-.4.22a.26.26 0 0 1-.106.036l-.038-.017a.6.6 0 0 1-.135-.17 4.793 4.793 0 0 1-.202-.378.986.986 0 0 1-.06-.15l-.01-.046h-.032l.03.01.002-.01h-.032l.03.01h-.003.003-.003.003c0-.006.053-.077.17-.19.378-.375.57-.902.572-1.437a2.01 2.01 0 0 0-.22-.924 2.04 2.04 0 0 0-1.792-1.085c-.14 0-.28.015-.42.047a.756.756 0 0 1-.16.023c-.06-.005-.04 0-.077-.025a1.03 1.03 0 0 1-.19-.28c-.03-.063-.064-.123-.095-.182-.077-.14-.088-.208-.085-.21l.018-.044c.023-.04.078-.11.165-.208.34-.377.556-.857.555-1.38a2.1 2.1 0 0 0-.213-.905 1.978 1.978 0 0 0-1.833-1.138c-.16 0-.32.016-.487.05a.607.607 0 0 1-.115.013l-.026-.002-.005.016.008-.014-.004-.002-.005.016.008-.014-.024-.026a.725.725 0 0 1-.07-.116c-.07-.134-.14-.247-.188-.346a2.05 2.05 0 0 1-.093-.207l-.014-.048-.003-.01H3.04l.044.016.002-.014H3.04l.043.015.005-.008c.013-.026.074-.1.182-.21.373-.38.556-.884.555-1.384 0-.374-.1-.75-.305-1.08-.205-.33-.493-.57-.802-.723s-.642-.224-.96-.224c-.16 0-.317.02-.467.057l-.067.01-.068-.02a.41.41 0 0 1-.11-.146c-.093-.172-.186-.354-.29-.538l-.016-.057a.29.29 0 0 1 .033-.117l-.338-.156.237.287.127-.106-.475-.574-.192.16-.036.076a1.032 1.032 0 0 0-.103.43c0 .14.037.29.112.42.093.168.184.345.28.526.083.155.188.293.332.398a.847.847 0 0 0 .504.162c.084 0 .167-.01.248-.032a1.18 1.18 0 0 1 .29-.034c.204 0 .428.048.627.147s.373.246.5.45c.128.206.194.447.194.687 0 .322-.116.634-.34.864a2.14 2.14 0 0 0-.267.31.745.745 0 0 0-.132.415c0 .113.027.214.06.307s.077.183.127.285c.07.14.142.258.196.36.075.143.158.274.294.383.135.11.322.163.483.16.088 0 .172-.01.26-.028a1.75 1.75 0 0 1 .342-.035c.55.006.94.265 1.16.713.1.208.14.402.14.585 0 .318-.125.616-.363.88-.1.112-.185.212-.256.33a.822.822 0 0 0-.12.42c0 .212.078.382.173.562.032.06.063.117.092.174.104.2.205.363.358.498.15.138.37.213.565.208.11 0 .216-.017.324-.04.084-.02.17-.03.256-.03a1.3 1.3 0 0 1 1.13.683c.092.176.137.378.137.583.002.35-.137.7-.35.907-.093.093-.177.175-.254.286a.747.747 0 0 0-.137.425c0 .188.06.342.14.515.073.152.153.298.236.438.09.15.192.283.328.386a.8.8 0 0 0 .485.166c.16 0 .31-.048.446-.118.152-.078.287-.16.413-.228.766-.417 1.53-.837 2.296-1.247.878-.47 1.765-.93 2.648-1.402.837-.45 1.663-.91 2.494-1.354.877-.47 1.765-.926 2.65-1.4 1.077-.58 2.146-1.17 3.218-1.747 1.138-.61 2.284-1.212 3.426-1.825.96-.516 1.91-1.044 2.864-1.557.947-.508 1.907-1.003 2.86-1.523.122-.068.246-.153.35-.282a.79.79 0 0 0 .176-.497c0-.162-.047-.32-.125-.474-.08-.16-.17-.314-.257-.462-.09-.15-.177-.28-.323-.39-.072-.052-.158-.092-.243-.114s-.166-.03-.244-.03a2.4 2.4 0 0 0-.275.02 3.033 3.033 0 0 1-.36.024 1.06 1.06 0 0 1-.318-.04c-.616-.208-.913-.7-.918-1.22 0-.34.133-.69.427-.972.078-.075.153-.165.212-.278s.1-.25.1-.4a.914.914 0 0 0-.158-.503c-.075-.115-.143-.26-.223-.423-.077-.154-.188-.29-.332-.386a.893.893 0 0 0-.73-.118 1.322 1.322 0 0 1-.63.007c-.572-.12-.985-.67-.983-1.244 0-.112.015-.226.048-.338.076-.26.22-.474.43-.693a.865.865 0 0 0 .264-.6.918.918 0 0 0-.103-.41c-.076-.152-.152-.31-.236-.472a1.164 1.164 0 0 0-.334-.414.863.863 0 0 0-.518-.164c-.095 0-.19.012-.283.033s-.19.03-.288.03a1.26 1.26 0 0 1-1.092-.606l-.033-.052.033.052a1.284 1.284 0 0 1-.192-.68c0-.354.138-.702.41-.946a1.08 1.08 0 0 0 .23-.28.774.774 0 0 0 .096-.373c0-.146-.04-.28-.096-.408-.106-.232-.227-.403-.287-.547a1.056 1.056 0 0 0-.276-.388.774.774 0 0 0-.505-.187c-.183 0-.36.06-.528.157-.627.36-1.283.69-1.94 1.044l-2.3 1.243c-.71.38-1.418.76-2.128 1.138-.69.37-1.384.737-2.077 1.11-.77.413-1.536.83-2.302 1.243-.78.42-1.56.838-2.34 1.256-.707.38-1.42.756-2.13 1.137-.768.413-1.534.83-2.3 1.244-.707.38-1.418.758-2.128 1.14-.77.412-1.535.83-2.302 1.24-.333.177-.676.348-1.02.526l-.037.018-.03.027.237.286zm20.71-7.95l4.66 8.76a.373.373 0 0 0 .656-.348l-4.658-8.76a.373.373 0 0 0-.657.348zm-2.576 1.23L5.56 15.252a.373.373 0 0 0 .348.657l13.14-6.988a.373.373 0 0 0-.348-.657zm-.79 3.793L6.957 17.88a.373.373 0 0 0 .35.658l10.95-5.823a.373.373 0 0 0-.35-.657zm-.56 4.23l-8.762 4.658a.373.373 0 0 0 .35.657l8.76-4.658a.373.373 0 0 0-.35-.657zm-.794 3.793l-6.57 3.495a.373.373 0 0 0 .348.657l6.57-3.494a.373.373 0 0 0-.348-.657z"/></svg>