<svg xmlns="http://www.w3.org/2000/svg" width="32" height="32" viewBox="0 0 32 32"><path d="M16.576 6.912c.546.055 1.092.102 1.636.166 2.573.304 4.915 1.124 7.058 2.348 2.746 1.568 4.97 3.55 6.548 6.037.236.37.25.683.002 1.052-2.88 4.273-7.017 7.178-12.738 8.26-3.48.66-6.868.223-10.065-1.105C5.22 22.093 2.272 19.736.21 16.59c-.282-.428-.276-.777.002-1.2C2.315 12.198 5.32 9.82 9.2 8.244a17.548 17.548 0 0 1 5.86-1.277c.118-.005.233-.036.348-.055h1.17zm-.797.887c-1.19.014-2.57.16-3.907.52-4.508 1.21-7.895 3.633-10.4 6.98-.63.84-.605.558-.01 1.38 1.864 2.57 4.376 4.58 7.524 5.99 3.265 1.464 6.726 1.946 10.326 1.172 5.084-1.093 8.773-3.767 11.466-7.515.177-.248.15-.438-.013-.676-1.743-2.537-4.13-4.532-7.102-6.02-2.362-1.182-4.918-1.82-7.886-1.83zM16 20.606c-2.82 0-5.116-2.068-5.116-4.61s2.295-4.61 5.116-4.61c2.82 0 5.116 2.067 5.116 4.61s-2.295 4.61-5.116 4.61zm0-8.168c-2.24 0-4.062 1.595-4.062 3.556S13.76 19.553 16 19.553s4.062-1.595 4.062-3.557S18.24 12.44 16 12.44z"/></svg>