<svg xmlns="http://www.w3.org/2000/svg" width="32" height="32" viewBox="0 0 32 32"><path d="M18.188 10.015l-.267.586-.448.99a1.86 1.86 0 0 1-.775.784l-12.29 5.754c-.292.137-.637.49-.767.787L.917 25.12c-.13.295-.008.404.27.24l13.138-7.666c.28-.163.398-.055.264.24L8.34 31.68c-.133.295-.012.406.27.246l5.894-3.338c.28-.16.6-.54.705-.844l4.443-12.718a1.86 1.86 0 0 1 .7-.85l.832-.486.556-.325c.027-.015.152-.273.276-.57l.72-1.726c.125-.3.438-.702.697-.896l2.93-2.195c.26-.195.232-.24-.06-.104L21.87 9.95c-.292.138-.444 0-.337-.305l1.65-4.726c.108-.306.05-.334-.126-.063L21.54 7.19c-.177.272-.532.653-.79.848l-2.072 1.57c-.258.194-.48.377-.492.405zm2.135.25c-.1.31-.248.816-.33 1.128l-.002.004c-.082.312.085.463.373.336s.762-.344 1.055-.48l1.014-.476c.293-.137.357-.05.143.19l-1.034 1.17c-.213.243-.537.53-.72.635s-.557.332-.833.5l-.47.29c-.277.17-.547.435-.6.59s-.163.464-.24.685l-.334.955-3.922 11.223c-.106.305-.423.685-.704.844l-2.943 1.665c-.28.16-.402.05-.268-.245l5.186-11.41.244-.536.243-.535.383-.843c.134-.294.01-.412-.277-.26l-2.034 1.072c-.287.15-.75.404-1.03.565L3.36 22.97c-.282.16-.405.048-.275-.248l1.36-3.097c.13-.296.475-.65.767-.787l10.855-5.082c.293-.137.772-.36 1.064-.498l.184-.086a2 2 0 0 0 .8-.772l.27-.525c.147-.288.353-.71.456-.937s.368-.61.587-.846l1.06-1.148c.218-.238.317-.18.218.128l-.384 1.195zm10.287-3.18c.08.08.15.165.213.258.492.724.413 1.73-.222 2.832-.56.972-1.507 1.942-2.67 2.73-2.558 1.74-5.292 2.032-6.236.64-.107-.157-.33.144-.383-.037-.415-1.425.967-3.956 3.276-5.525 2.388-1.623 4.92-2 6.024-.898zm-7.872 5.888c.587.587 2.548.31 4.532-1.04 1.017-.69 1.84-1.523 2.312-2.344.386-.67.487-1.264.268-1.586-.485-.727-2.53-.458-4.604.952-2.056 1.397-3.058 3.226-2.58 3.93l.07.087zm.55-6.5c-1.287 2.478-3.64 4.147-5.102 3.9-.186-.03.087-.286-.082-.375-1.492-.775-1.522-3.524-.096-6.27.647-1.245 1.5-2.3 2.4-2.97 1.02-.76 2.01-.958 2.786-.554.1.052.193.112.28.18 1.225.966 1.147 3.527-.185 6.088zm-4.643 2.483c.754.392 2.454-.818 3.6-3.024 1.158-2.226 1.185-4.287.406-4.684-.344-.18-.92-.01-1.54.452-.762.567-1.492 1.48-2.06 2.57-1.105 2.13-1.15 4.11-.5 4.624l.096.06z"/></svg>