<svg xmlns="http://www.w3.org/2000/svg" width="32" height="32" viewBox="0 0 32 32"><path d="M16 32C7.178 32 0 24.822 0 16S7.178 0 16 0s16 7.177 16 16-7.178 16-16 16zm0-30.968C7.747 1.032 1.033 7.747 1.033 16S7.748 30.966 16 30.966 30.967 24.252 30.967 16C30.967 7.745 24.252 1.03 16 1.03zm.79 8.14l.438.572.187.242c.108.14.2.26.29.382.506.686.712 1.464.582 2.19-.112.63-.473 1.205-1.028 1.653.187-.37.31-.86.31-1.51-.012-.514-.166-1.172-.41-1.76-.332-.79-.83-1.378-1.485-1.75l-.034-.02h1.15zm-4.216 1.038c-.02.052-.035.105-.05.16-.41 1.546-.096 2.98.91 4.15.187.216.405.396.645.534a4.17 4.17 0 0 1-.16-.006c-.74-.042-1.36-.336-1.794-.85a2.613 2.613 0 0 1-.586-1.942c.093-.824.44-1.51 1.032-2.046zm3.72 4.946c-.085.17-.134.35-.146.537-.03.484.2.96.647 1.34.286.243.59.453.885.655l.07.05c.79.542 1.24 1.3 1.27 2.132.02.603-.182 1.183-.58 1.684l.038-.1c.22-.615.17-1.27-.14-1.847-.483-.9-1.29-1.458-2.017-1.884a.868.868 0 0 0-.36-.112l-.38-.484c-.315-.4-.34-.81-.278-1.307a.814.814 0 0 0-.05-.442h.032c.31 0 .61-.06.898-.175l.11-.048zm-4.175 3.53c-.74.598-.99 1.498-.665 2.42.27.772.784 1.35 1.525 1.72.55.276 1.18.41 1.923.41.048 0 .096 0 .145-.002l-.01.002-.025.006H13.6l-.17-.03c-.144-.027-.288-.052-.43-.086-1.245-.298-2.092-.694-2.447-1.726v-.738c.194-.632.437-1.066.783-1.4.234-.225.492-.415.784-.576zm7.64-10.03h-5.104c-.34 0-1.017.275-1.49.523-1.225.645-1.983 1.65-2.136 3.018-.167 1.482.8 3.248 2.864 3.365.088.005.176.008.264.008.142 0 .284-.007.423-.025l.088-.007c.12 0 .142.058.123.22-.07.58-.04 1.148.385 1.688-.488.057-.927.09-1.358.162-1.057.177-2.044.516-2.84 1.283-.488.472-.753 1.06-.94 1.695v.896c.436 1.394 1.585 1.845 2.843 2.147.222.053.45.087.674.13h1.517c.09-.02.178-.043.268-.056 1.068-.148 2.036-.53 2.885-1.206 1.82-1.452 1.74-3.862-.178-5.183-.312-.214-.627-.427-.915-.67-.673-.573-.613-1.304.13-1.793 1.722-1.132 2.082-3.128.86-4.786-.14-.19-.286-.374-.483-.63h.38c.07 0 .134 0 .2-.002h.04c.08 0 .164.007.246.007.11 0 .218-.015.316-.087.313-.23.66-.416.94-.694zm-4.476 6.207a1.92 1.92 0 0 1-1.458-.68c-.924-1.073-1.16-2.34-.803-3.68.185-.698.82-1.102 1.507-1.102.298 0 .605.077.89.24.602.342.998.87 1.262 1.5.237.568.362 1.16.373 1.574-.002 1.084-.387 1.736-1.067 2.012a1.865 1.865 0 0 1-.704.137zm-.382 7.856c-.595 0-1.16-.09-1.692-.356a2.462 2.462 0 0 1-1.27-1.43c-.255-.73-.07-1.406.54-1.877.95-.732 2.053-.934 3.207-.934.07 0 .14 0 .21.002.054 0 .116.016.163.044.73.427 1.412.915 1.824 1.682.523.974.04 2.156-1.043 2.603-.477.198-.974.264-1.468.264a6.09 6.09 0 0 1-.234-.006c-.08.003-.16.004-.237.004zm9.33-11.37c.02.14.073.322.218.47.143.143.317.198.46.22-.417.052-.605.236-.662.648a.76.76 0 0 0-.208-.444.775.775 0 0 0-.485-.218c.432-.057.62-.245.677-.677zm.492-2.695h-.965c-.008.78-.017 1.56-.022 2.34-.003.534 0 .534-.55.534H21.364c-.522 0-.522 0-.52.532v.103c-.034.277.085.376.352.376h.022c.25-.004.5-.005.75-.005l.864.002c.197 0 .394 0 .592-.004h.013c.228 0 .312.086.308.32-.01.655-.004 1.31-.004 1.965 0 .625 0 .61.61.62h.023c.277 0 .388-.087.38-.39-.02-.676-.007-1.354-.007-2.032 0-.48 0-.477.465-.48l2.41-.02v-.965c-.675-.005-1.352-.018-2.028-.018-.16 0-.318 0-.478.002H25.1c-.273 0-.363-.093-.36-.373.01-.834-.008-1.67-.015-2.506z"/></svg>