<?xml version="1.0" encoding="utf-8"?>
<!-- Generator: Adobe Illustrator 18.1.1, SVG Export Plug-In . SVG Version: 6.00 Build 0)  -->
<svg version="1.1" id="Layer_1" xmlns="http://www.w3.org/2000/svg" xmlns:xlink="http://www.w3.org/1999/xlink" x="0px" y="0px"
	 viewBox="0 0 1000 1000" enable-background="new 0 0 1000 1000" xml:space="preserve">
<path fill="#FFFFFF" d="M405.3,125c-199.6,0-231.4,139.2-231.4,185.5c0,69,53.6,155.3,162.1,155.3c9.9,0,21.1-0.7,32.2-2
	c-1.8,5.2-9.8,22.2-9.8,38.1c0,33.1,21,54.5,28.3,67.4C268,568.2,125,619.8,125,734.4c0,41.9,35.9,140.6,205.1,140.6
	c193,0,252-118.8,252-185.5c0-127.6-134.8-149.1-134.8-208c0-61.8,100.6-66.8,100.6-187.5c0-87.4-61.2-129.9-67.4-133.8H541
	l60.5-35.2H405.3z M344.7,157.2c96.2,0,120.1,142.8,120.1,181.6c0,9,6.1,99.6-83,99.6c-67.6,0-125-85-125-175.8
	C256.8,235.7,270.1,157.2,344.7,157.2z M750,343.8v93.8h-93.8V500H750v93.8h62.5V500h93.8v-62.5h-93.8v-93.8H750z M391.6,596.7
	c8.4,0,15.2,0.3,21.5,1c34.1,25.5,105.5,62,105.5,129.9c0,30.8-18.4,106.4-141.6,106.4C315.1,834,208,807.6,208,713.9
	C208,681.5,227.4,596.7,391.6,596.7z"/>
</svg>
