<svg xmlns="http://www.w3.org/2000/svg" width="32" height="32" viewBox="0 0 32 32"><path d="M30.16 15.074v-.48H1.854a.48.48 0 0 1-.48-.478V1.438a.48.48 0 0 1 .48-.48H30.16a.48.48 0 0 1 .48.48v12.678a.48.48 0 0 1-.48.48v.958c.794 0 1.438-.644 1.438-1.438V1.438C31.598.644 30.954 0 30.16 0H1.854C1.06 0 .416.644.416 1.438v12.678c0 .794.644 1.438 1.438 1.438H30.16v-.48zm0 16.447v-.478H1.854a.48.48 0 0 1-.48-.48V17.886a.48.48 0 0 1 .48-.48H30.16a.48.48 0 0 1 .48.48v12.678a.48.48 0 0 1-.48.48V32c.794 0 1.438-.643 1.438-1.437V17.885c0-.794-.644-1.438-1.438-1.438H1.854c-.794 0-1.438.644-1.438 1.438v12.678c0 .794.644 1.438 1.438 1.438H30.16v-.478z"/></svg>