<svg xmlns="http://www.w3.org/2000/svg" width="32" height="32" viewBox="0 0 32 32"><path d="M13.403 31.52v-.478H2.923a1.2 1.2 0 0 1-1.197-1.198V18.646a1.2 1.2 0 0 1 1.198-1.198h10.48a1.2 1.2 0 0 1 1.197 1.198v11.198a1.2 1.2 0 0 1-1.197 1.198V32c1.19 0 2.155-.965 2.156-2.156V18.646c0-1.19-.966-2.155-2.157-2.156H2.923c-1.19 0-2.154.965-2.155 2.156v11.198c0 1.19.965 2.155 2.156 2.156h10.48v-.48zm15.703 0v-.478h-10.48a1.2 1.2 0 0 1-1.197-1.198V18.646a1.2 1.2 0 0 1 1.197-1.198h10.48a1.2 1.2 0 0 1 1.197 1.198v11.198a1.2 1.2 0 0 1-1.198 1.198V32c1.19 0 2.155-.965 2.156-2.156V18.646c0-1.19-.965-2.155-2.156-2.156h-10.48c-1.19 0-2.154.965-2.155 2.156v11.198c0 1.19.966 2.155 2.157 2.156h10.48v-.48zM13.403 15.03v-.48H2.923a1.2 1.2 0 0 1-1.197-1.197V2.155A1.2 1.2 0 0 1 2.924.957h10.48A1.2 1.2 0 0 1 14.6 2.155v11.198a1.2 1.2 0 0 1-1.197 1.198v.96c1.19 0 2.155-.966 2.156-2.157V2.155C15.56.965 14.593 0 13.402 0H2.923C1.734 0 .77.963.77 2.154v11.198c0 1.19.965 2.155 2.156 2.156h10.48v-.48zm15.703 0v-.48h-10.48a1.2 1.2 0 0 1-1.197-1.197V2.155A1.2 1.2 0 0 1 18.626.957h10.48a1.2 1.2 0 0 1 1.197 1.198v11.198a1.2 1.2 0 0 1-1.198 1.198v.96c1.19 0 2.155-.966 2.156-2.157V2.155C31.262.965 30.297 0 29.106 0h-10.48c-1.19 0-2.154.964-2.155 2.155v11.198c0 1.19.966 2.155 2.157 2.156h10.48v-.48z"/></svg>