<svg xmlns="http://www.w3.org/2000/svg" width="32" height="32" viewBox="0 0 32 32"><path d="M.678 20.856c-.43.348-.678.863-.678 1.416a1.82 1.82 0 0 0 1.82 1.818h28.362a1.82 1.82 0 0 0 .978-3.352l-.06-.03-14.726-5.965v-1.266a2.802 2.802 0 0 0 2.425-2.773c0-1.544-1.256-2.8-2.8-2.8s-2.8 1.256-2.8 2.8a.375.375 0 0 0 .75 0c0-1.132.92-2.052 2.05-2.052s2.053.92 2.053 2.052-.92 2.052-2.052 2.052a.375.375 0 0 0-.373.374v1.866c0 .153.093.29.233.346l14.925 6.044a1.073 1.073 0 0 1-.605 1.96H1.82a1.075 1.075 0 0 1-.673-1.908l.2-.16 13.195-4.763a.37.37 0 0 0 .224-.477.372.372 0 0 0-.478-.224L1.034 20.6l-.107.06-.248.2z"/></svg>