<svg xmlns="http://www.w3.org/2000/svg" width="32" height="32" viewBox="0 0 32 32"><path d="M19.84 8.866c1.965 0 3.564 1.6 3.564 3.564v8.712c0 1.965-1.6 3.564-3.564 3.564h-8.712a3.568 3.568 0 0 1-3.564-3.564V12.43c0-1.965 1.6-3.564 3.564-3.564h8.712zm0-.528h-8.712a4.092 4.092 0 0 0-4.092 4.092v8.712a4.092 4.092 0 0 0 4.092 4.092h8.712a4.092 4.092 0 0 0 4.092-4.092V12.43a4.092 4.092 0 0 0-4.092-4.092zM7.225 14.45h5.162v1.033H7.225V14.45zm11.356 0h5.163v1.033H18.58V14.45zm-3.096 7.618c-2.476 0-4.49-2.015-4.49-4.49s2.015-4.49 4.49-4.49 4.492 2.013 4.492 4.49-2.015 4.49-4.49 4.49zm0-8.315c-2.11 0-3.825 1.716-3.825 3.825s1.715 3.825 3.824 3.825 3.825-1.716 3.825-3.825a3.83 3.83 0 0 0-3.826-3.825zm5.016-2.77v1.057h-1.848v-1.056H20.5zm.134-.527h-2.117a.393.393 0 0 0-.393.393v1.324c0 .217.176.393.393.393h2.117a.393.393 0 0 0 .393-.393V10.85a.393.393 0 0 0-.393-.394zM16 32C7.178 32 0 24.822 0 16S7.178 0 16 0s16 7.177 16 16-7.178 16-16 16zm0-30.968C7.747 1.032 1.033 7.747 1.033 16S7.748 30.966 16 30.966 30.967 24.252 30.967 16C30.967 7.745 24.252 1.03 16 1.03z"/></svg>