<svg xmlns="http://www.w3.org/2000/svg" width="32" height="32" viewBox="0 0 32 32"><path d="M16.02 1.09c4.742 0 9.093 2.172 11.936 5.96 2.34 3.12 3.152 5.533 2.902 8.744l-.233.186-18.77 14.825c-2.79-.832-5.524-2.894-7.748-5.857-2.39-3.185-3.397-7.11-2.835-11.053s2.626-7.43 5.81-9.82a14.784 14.784 0 0 1 8.938-2.987zm0-1.09a15.923 15.923 0 0 0-9.592 3.204c-7.067 5.304-8.496 15.332-3.193 22.4C5.545 28.68 8.627 31.15 12.097 32l.08-.06L31.9 16.355c.41-3.877-.547-6.595-3.072-9.96C25.685 2.208 20.88 0 16.02 0zm13.838 16.353c.098 0 .196 0 .295.002l-17.268 13.66c2.404-11.845 11.58-13.662 16.973-13.662zm0-1.085c-5.432 0-16.212 1.834-18.297 16.027a.526.526 0 0 0 .517.605.502.502 0 0 0 .313-.11l18.99-15.02c.596-.473.295-1.444-.46-1.478a24.477 24.477 0 0 0-1.06-.023zm-16.93.148c-.288.47-.685.436-.885-.078l-.77-1.98c-.2-.514-.8-1.038-1.338-1.165l-2.067-.488c-.537-.127-.626-.516-.2-.865l1.646-1.344c.427-.35.74-1.084.694-1.634l-.174-2.117c-.045-.55.297-.755.76-.457l1.787 1.15c.465.297 1.26.367 1.77.155l1.96-.82c.508-.213.81.05.668.583l-.54 2.054c-.14.533.038 1.312.398 1.73l1.386 1.61c.36.418.204.786-.347.817l-2.12.12c-.552.03-1.236.442-1.523.913l-1.104 1.815zM9.875 10.33c-.427.35-.337.74.2.866l.6.142c.538.127 1.14.65 1.34 1.165l.224.578c.2.515.598.55.884.08l.322-.53c.287-.47.972-.882 1.522-.913l.618-.035c.55-.03.707-.4.347-.817l-.404-.47c-.36-.418-.54-1.196-.4-1.73l.16-.6c.14-.532-.162-.794-.67-.582l-.572.24c-.51.212-1.304.142-1.768-.157l-.52-.335c-.465-.297-.807-.092-.762.458l.05.618c.046.55-.266 1.285-.693 1.634l-.48.392z"/></svg>