<svg xmlns="http://www.w3.org/2000/svg" width="32" height="32" viewBox="0 0 32 32"><path d="M24.172 11.03V8.776c0-4.92-3.647-8.775-8.276-8.775C11.29 0 7.66 3.854 7.66 8.775v2.256c-2.624 2.214-3.756 5.36-3.756 8.858C3.904 26.568 9.398 32 16.077 32S28.12 26.567 28.12 19.888c0-3.497-1.388-6.644-3.948-8.857zM8.684 8.776c0-4.26 3.266-7.598 7.212-7.598 3.97 0 7.252 3.338 7.252 7.598v1.29c-2.624-1.434-4.597-2.29-7.232-2.29s-4.672.856-7.232 2.29v-1.29zm5.71 15.486c0-.96.783-1.742 1.744-1.742s1.743.782 1.743 1.743c0 .962-.78 1.744-1.742 1.744s-1.743-.782-1.743-1.743zm2.034 6.534V27.12c1.536-.272 2.48-1.45 2.48-2.86 0-1.61-1.235-2.918-2.845-2.918s-2.954 1.31-2.954 2.92c0 1.407.76 2.586 2.295 2.86v3.672C9.197 30.486 5.13 25.72 5.13 19.888c0-6.03 4.942-10.935 10.972-10.935s10.805 4.906 10.805 10.935c0 5.832-4.27 10.598-10.478 10.906z"/></svg>