<svg xmlns="http://www.w3.org/2000/svg" width="32" height="32" viewBox="0 0 32 32"><path d="M32 7.93c0-.648-.53-1.178-1.18-1.178H1.18c-.65 0-1.18.53-1.18 1.18v16.14c0 .65.53 1.18 1.18 1.18h29.64c.65 0 1.18-.53 1.18-1.18V7.933zm-1.962 1.302c.53-.375.962-.152.962.497v12.39c0 .65-.44.885-.98.524l-8.738-5.848c-.54-.36-.547-.963-.018-1.338l8.775-6.226zM16.962 17.04c-.53.375-1.394.375-1.923 0L2.915 8.435c-.53-.375-.43-.683.218-.683h25.74c.65 0 .747.307.218.682l-12.13 8.606zm-6.28-1.622c.53.375.526.984-.008 1.352L1.97 22.774c-.533.368-.97.14-.97-.51V9.725c0-.65.434-.872.962-.497l8.72 6.19zm.864 2.075c.53-.372 1.402-.373 1.934-.003l1.552 1.08c.532.37 1.405.372 1.94.004l1.48-1.018c.535-.367 1.412-.37 1.95-.008l8.936 6.043c.537.364.446.66-.202.66H3.06c-.648 0-.744-.303-.213-.675l8.7-6.083zM31 8.037h-.03v-.04l.03.04zm-29.967-.04v.045H1l.033-.046z"/></svg>