<svg xmlns="http://www.w3.org/2000/svg" width="32" height="32" viewBox="0 0 32 32"><path d="M7.718 32h16.584a.518.518 0 0 0 0-1.036H7.718a.518.518 0 0 0 0 1.036zm8.81-1.036V26.3h-1.036v4.664zm-.518-7.733v-.517c-1.297 0-2.474-.53-3.332-1.386s-1.386-2.035-1.386-3.332V5.755c0-1.298.53-2.475 1.386-3.333s2.034-1.386 3.332-1.386c1.297 0 2.474.53 3.332 1.386s1.386 2.034 1.386 3.332v12.24c0 1.298-.53 2.475-1.386 3.333s-2.035 1.386-3.332 1.386v1.037a5.77 5.77 0 0 0 5.754-5.754V5.756A5.77 5.77 0 0 0 16.01 0a5.77 5.77 0 0 0-5.754 5.755v12.24a5.77 5.77 0 0 0 5.754 5.755v-.518zM10.828 7.643h10.365v1.036H10.828V7.642zM23.253 19.11c0 1.834-.787 3.493-2.073 4.705-1.286 1.21-3.067 1.964-5.042 1.964s-3.756-.754-5.042-1.965c-1.286-1.212-2.072-2.87-2.073-4.705a.518.518 0 0 0-1.036 0c0 2.136.922 4.07 2.398 5.46 1.477 1.39 3.512 2.245 5.753 2.245s4.276-.855 5.753-2.246c1.478-1.39 2.4-3.325 2.4-5.46a.518.518 0 0 0-1.036 0z"/></svg>