<svg xmlns="http://www.w3.org/2000/svg" width="32" height="32" viewBox="0 0 32 32"><path d="M21.437 31.442v-.558H10.585c-.584 0-1.108-.235-1.49-.618s-.618-.907-.62-1.49V3.225c0-.584.236-1.108.62-1.49s.906-.62 1.49-.62h10.852c.584 0 1.108.236 1.49.62s.62.906.62 1.49v25.55c0 .583-.236 1.107-.62 1.49s-.906.617-1.49.618V32a3.225 3.225 0 0 0 3.225-3.225V3.225A3.225 3.225 0 0 0 21.437.002H10.585A3.225 3.225 0 0 0 7.36 3.227v25.55A3.225 3.225 0 0 0 10.585 32h10.852v-.558zM7.86 4.825h16.372v-.533H7.86zm.105 21.953h16.372v-.533H7.965zm9.128 2.385a.884.884 0 1 1-1.77 0 .884.884 0 0 1 1.77 0zm-1.92-26.29h1.675a.267.267 0 1 0 0-.535h-1.674a.267.267 0 1 0 0 .534z"/></svg>