<svg xmlns="http://www.w3.org/2000/svg" width="32" height="32" viewBox="0 0 32 32"><path d="M4.065 16.413l-.385.002.062 10.218c0 .152.09.288.23.35l11.15 4.922a.386.386 0 0 0 .54-.354l-.06-10.654a.385.385 0 0 0-.24-.355L4.208 16.056c-.12-.048-.255-.034-.36.04s-.17.19-.17.32l.386-.002-.144.357 10.913 4.39.057 9.8-10.38-4.58-.062-9.97-.385.003zm0-.087l.12.366 11.263-3.68 8.872 3.147-9.053 4.44-11.053-4.63-.297.71 11.215 4.698c.103.043.218.04.318-.01l10.03-4.92a.385.385 0 0 0-.04-.71l-9.858-3.497a.377.377 0 0 0-.248-.002l-11.388 3.72a.386.386 0 0 0-.03.722l.15-.355zm21.557 10.678l-.16-.35-9.5 4.366-.23-9.937 9.387-4.204.117 10.13.77-.01-.125-10.716a.386.386 0 0 0-.542-.347l-10.156 4.548a.387.387 0 0 0-.228.36l.25 10.78a.385.385 0 0 0 .545.34l10.032-4.61a.385.385 0 0 0 .224-.354l-.385.005zM10.61 14.75l9.11 4.17a.385.385 0 1 0 .32-.7l-9.11-4.17a.385.385 0 1 0-.32.7zM8.613 5.49l.266.453 8.372-4.89.025.006.025.043.002 2.613.418.107.13-.51-.14.507a23.013 23.013 0 0 1 3.43 1.227h.002-.003c.87.382 1.725.877 2.538 1.472.574.418 1.115.903 1.607 1.438 1.26 1.37 1.973 3.182 1.972 4.974 0 .07 0 .14-.003.212-.01.323-.047.643-.083.92l-.048.045.012.525v-.526h-.013l-.05-.042c-.162-.922-.427-1.706-.82-2.376a5.946 5.946 0 0 0-1.908-2.013 8.525 8.525 0 0 0-2.054-.957c-.863-.273-1.807-.44-2.875-.518h-.002.003c-.433-.03-.896-.047-1.453-.05h-.004l-.623.007-.002 2.6-.024.044-.025.007-.024-.007L8.88 6.032l-.025-.044h-.007.007-.007.007l.025-.043h.002l-.267-.454-.265-.453c-.338.198-.546.56-.546.95v.007a1.1 1.1 0 0 0 .556.95l8.375 4.775a1.108 1.108 0 0 0 1.1-.005 1.1 1.1 0 0 0 .55-.952v-2.08h-.525l.005.526.1-.002-.006-.526-.003.526c.54.002.98.017 1.382.047 1.003.072 1.862.228 2.633.472a7.47 7.47 0 0 1 1.803.84c.62.396 1.166.97 1.568 1.658.316.54.545 1.197.693 2.03.094.527.552.91 1.085.91h.025c.544-.013.997-.42 1.068-.958v-.003.002c.038-.29.08-.644.092-1.025.003-.08.004-.162.004-.244 0-2.07-.812-4.12-2.248-5.686a12.034 12.034 0 0 0-1.76-1.577 14.676 14.676 0 0 0-2.736-1.586 24.002 24.002 0 0 0-2.864-1.073c-.27-.08-.494-.145-.706-.204h-.005l-.028-.008-.13.51h.525l-.002-2.206a1.103 1.103 0 0 0-1.66-.95L8.35 5.04l.265.454z"/></svg>