<svg xmlns="http://www.w3.org/2000/svg" width="32" height="32" viewBox="0 0 32 32"><path d="M4.723 16.326l.06 9.717 10.604 4.68-.06-10.13zm10.664 4.75a.372.372 0 0 1-.142-.03L4.58 16.58a.365.365 0 0 1 .028-.686l10.83-3.54a.367.367 0 0 1 .235.004l9.375 3.325c.14.05.235.177.242.324a.364.364 0 0 1-.204.35l-9.54 4.68a.347.347 0 0 1-.16.038zm-9.616-4.79l9.605 4.022 8.61-4.224-8.44-2.993-9.774 3.196zm19.453 10.112l-9.835 4.325-.06-10.132 9.777-4.383zm-5.46-7.654a.368.368 0 0 1-.153-.033l-8.664-3.965a.367.367 0 0 1 .304-.666l8.663 3.966a.365.365 0 0 1-.152.698zM9.048 5.937l7.936-4.644a.547.547 0 0 1 .825.473l.003 2.097.022.006a22.348 22.348 0 0 1 3.327 1.19c.862.38 1.706.868 2.507 1.454.572.418 1.11.9 1.6 1.434 1.334 1.45 2.065 3.378 2.005 5.286-.01.335-.048.655-.084.925a.55.55 0 0 1-.53.476h-.013a.55.55 0 0 1-.54-.453c-.148-.834-.383-1.52-.72-2.095a5.18 5.18 0 0 0-1.653-1.746 7.592 7.592 0 0 0-1.834-.854c-.777-.245-1.634-.4-2.62-.47-.397-.03-.825-.043-1.347-.046h-.094l-.003 1.98a.546.546 0 0 1-.82.474l-7.964-4.54a.55.55 0 0 1-.006-.95z"/></svg>