<svg xmlns="http://www.w3.org/2000/svg" width="32" height="32" viewBox="0 0 32 32"><path d="M.552 7.834L0 7.837l.09 14.645c0 .218.128.413.328.5l15.984 7.055a.55.55 0 0 0 .775-.508l-.09-15.27a.55.55 0 0 0-.346-.51L.76 7.32A.552.552 0 0 0 0 7.837l.552-.003-.206.512 15.64 6.29.082 14.048L1.19 22.118 1.103 7.83l-.552.004zm0-.125l.17.522 16.144-5.275 12.716 4.51-12.975 6.368L.765 7.2.34 8.218l16.07 6.732a.546.546 0 0 0 .456-.013l14.377-7.054a.552.552 0 0 0-.058-1.015L17.06 1.856a.543.543 0 0 0-.357-.004L.38 7.185a.552.552 0 0 0-.04 1.033l.212-.51zm30.896 15.303l-.23-.5-13.614 6.256-.33-14.244L30.73 8.502l.17 14.518 1.1-.013-.18-15.36a.55.55 0 0 0-.776-.496L16.49 13.67a.554.554 0 0 0-.327.516l.357 15.448a.55.55 0 0 0 .782.488l14.377-6.608a.55.55 0 0 0 .32-.508l-.553.006zM9.93 5.453l13.06 5.977a.55.55 0 1 0 .46-1.004L10.39 4.45a.55.55 0 1 0-.46 1.002z"/></svg>