<svg xmlns="http://www.w3.org/2000/svg" width="32" height="32" viewBox="0 0 32 32"><path d="M9.19 31.75c-.523-2.27-.555-4.497-.09-6.622a365.864 365.864 0 0 1 1.702-7.322l.412-1.718c.188-.788.18-1.478-.02-2.168-.556-1.892-.343-3.61.632-5.106.597-.915 1.537-1.462 2.517-1.462.31 0 .608.056.89.166 1.123.438 1.662 1.677 1.408 3.233-.17 1.054-.493 2.094-.805 3.1-.224.722-.456 1.47-.633 2.223-.207.886-.358 2.174.73 3.14.627.556 1.34.84 2.113.84.433 0 .89-.09 1.36-.265 1.226-.46 2.163-1.343 2.95-2.784 1.165-2.14 1.645-4.6 1.467-7.518-.136-2.217-1.16-3.96-2.964-5.045-1.35-.81-2.95-1.24-4.63-1.24-3.613 0-7.74 2.132-8.815 6.894-.48 2.122-.266 3.716.67 5.018.57.79.667 1.514.335 2.495-.248.732-.48.832-.698.832-.184 0-.426-.082-.74-.248-1.034-.55-1.798-1.415-2.404-2.726-.372-.806-.517-1.657-.67-2.558-.036-.204-.07-.41-.108-.612l.004-1.178.024-.097c.028-.104.054-.21.063-.317.433-5.01 4.59-9.27 9.885-10.123.578-.094 1.17-.163 1.745-.23l.82-.1h.806c.178.025.387.045.596.065.434.042.883.086 1.307.175 5.353 1.128 8.344 4.196 9.142 9.38l-.003 2.052-.146.993c-.502 3.47-1.698 5.97-3.768 7.872-1.51 1.387-3.622 2.216-5.652 2.216-1.017 0-1.982-.21-2.79-.61-.178-.088-.37-.265-.553-.436-.297-.276-.606-.562-.958-.562a.657.657 0 0 0-.387.128c-.432.308-.535.98-.634 1.632-.028.19-.056.378-.093.55-.69 3.228-1.972 5.862-3.912 8.044h-.11zM17.12.5c.2.024.402.043.603.063.447.043.87.085 1.28.17 5.226 1.102 8.15 4.09 8.94 9.135v2.018l-.043.305-.1.69c-.492 3.408-1.665 5.862-3.688 7.722-1.465 1.346-3.515 2.15-5.483 2.15-.98 0-1.906-.2-2.68-.583-.145-.073-.322-.237-.494-.396-.334-.31-.678-.628-1.13-.628-.19 0-.37.058-.532.174-.518.37-.63 1.096-.736 1.798-.03.192-.057.373-.09.534-.654 3.052-1.84 5.563-3.618 7.658-.434-2.1-.437-4.16-.008-6.13.533-2.445 1.127-4.92 1.7-7.316l.413-1.72c.2-.832.19-1.562-.024-2.296-.533-1.82-.33-3.467.604-4.9.55-.845 1.413-1.35 2.308-1.35.277 0 .546.05.8.15 1.006.392 1.486 1.526 1.253 2.96-.17 1.038-.49 2.068-.797 3.065-.226.727-.46 1.48-.637 2.24-.222.948-.38 2.33.808 3.384.675.6 1.442.902 2.28.902.463 0 .95-.095 1.447-.28 1.287-.48 2.266-1.403 3.082-2.9 1.19-2.183 1.68-4.686 1.498-7.653-.14-2.303-1.207-4.116-3.085-5.244-1.39-.835-3.035-1.276-4.76-1.276-3.71 0-7.952 2.192-9.058 7.088-.312 1.383-.578 3.427.712 5.22.522.725.607 1.36.3 2.268-.224.662-.39.662-.462.662-.096 0-.283-.038-.623-.218-.985-.52-1.714-1.35-2.294-2.61-.358-.776-.5-1.61-.652-2.494a56.62 56.62 0 0 0-.1-.57v-1.15l.017-.06c.03-.104.06-.225.073-.36.423-4.9 4.492-9.06 9.676-9.898.572-.093 1.165-.162 1.738-.23.262-.03.525-.062.787-.095h.776zm.03-.5h-.836c-.858.11-1.72.194-2.575.332C8.38 1.197 4.093 5.468 3.643 10.68c-.01.136-.058.27-.09.405v1.255c.203 1.092.325 2.202.798 3.23.554 1.2 1.32 2.208 2.513 2.84.345.183.625.276.857.276.435 0 .706-.325.935-1.002.334-.986.29-1.81-.368-2.72-1.04-1.445-1.01-3.14-.63-4.818 1.01-4.48 4.835-6.698 8.57-6.698 1.59 0 3.166.402 4.5 1.204 1.788 1.074 2.715 2.756 2.843 4.846.157 2.582-.18 5.075-1.438 7.383-.65 1.193-1.5 2.178-2.817 2.67-.436.164-.86.25-1.27.25-.697 0-1.352-.247-1.95-.777-.897-.796-.9-1.83-.65-2.895.42-1.795 1.142-3.508 1.44-5.338.27-1.66-.32-3.022-1.565-3.507a2.7 2.7 0 0 0-.982-.183c-1.025 0-2.067.565-2.725 1.576-1.078 1.654-1.207 3.464-.664 5.313.208.704.183 1.35.02 2.04-.72 3.01-1.457 6.02-2.117 9.043-.503 2.308-.42 4.628.14 6.925h.417c2.13-2.364 3.383-5.155 4.045-8.243.152-.71.17-1.7.63-2.03a.41.41 0 0 1 .24-.08c.442 0 .904.726 1.403.972.87.428 1.866.636 2.9.636 2.035 0 4.21-.8 5.823-2.282 2.355-2.164 3.402-4.944 3.847-8.02.05-.342.1-.685.148-1.028v-2.09c-.834-5.416-4.088-8.48-9.338-9.586C18.467.11 17.804.08 17.15 0z"/></svg>