<svg xmlns="http://www.w3.org/2000/svg" width="32" height="32" viewBox="0 0 32 32"><path d="M16 32C7.178 32 0 24.822 0 16S7.178 0 16 0s16 7.177 16 16-7.178 16-16 16zm0-30.968C7.747 1.032 1.033 7.747 1.033 16S7.748 30.966 16 30.966 30.967 24.252 30.967 16C30.967 7.745 24.252 1.03 16 1.03zm.665 5.807l.357.036c.264.026.514.05.75.1 3.06.644 4.772 2.39 5.238 5.332v1.188l-.02.132-.064.453c-.29 2.01-.978 3.455-2.164 4.546a4.808 4.808 0 0 1-3.172 1.244c-.56 0-1.087-.114-1.526-.33a1.56 1.56 0 0 1-.248-.205c-.21-.195-.472-.437-.828-.437a.766.766 0 0 0-.446.145c-.387.276-.464.783-.533 1.23a4.74 4.74 0 0 1-.054.31c-.35 1.638-.96 3.012-1.852 4.178a8.537 8.537 0 0 1 .078-3.163 215.81 215.81 0 0 1 1.03-4.426l.248-1.033c.13-.54.124-1.018-.017-1.5-.31-1.05-.198-1.962.34-2.786.288-.442.754-.718 1.215-.718.14 0 .278.025.406.075.51.198.748.795.624 1.557-.1.612-.282 1.2-.475 1.824-.137.443-.28.9-.39 1.37-.084.36-.34 1.46.555 2.255.448.398.96.6 1.52.6a2.7 2.7 0 0 0 .95-.183c.83-.31 1.457-.898 1.977-1.85.74-1.357 1.044-2.91.932-4.745-.09-1.466-.77-2.622-1.97-3.342-.872-.525-1.906-.802-2.987-.802-2.33 0-4.992 1.378-5.687 4.455-.198.876-.365 2.175.466 3.33.272.38.314.698.152 1.178a1.153 1.153 0 0 1-.11.25A1.043 1.043 0 0 1 10.72 17c-.553-.29-.964-.76-1.294-1.478-.205-.444-.29-.935-.378-1.456-.02-.11-.037-.22-.057-.328v-.648l.003-.01c.018-.068.04-.153.05-.254.247-2.867 2.633-5.303 5.672-5.794.343-.055.7-.097 1.043-.138l.464-.056h.443zm.03-.517h-.505c-.52.066-1.04.117-1.557.2-3.24.524-5.833 3.107-6.105 6.26-.007.083-.036.163-.054.245v.76c.122.66.196 1.33.482 1.952.335.727.8 1.336 1.52 1.72.21.11.378.166.518.166.263 0 .427-.197.566-.606.202-.596.174-1.094-.223-1.646-.63-.873-.61-1.898-.38-2.913.61-2.71 2.924-4.05 5.183-4.05.963 0 1.915.244 2.722.728 1.08.65 1.643 1.667 1.72 2.93.095 1.563-.11 3.07-.87 4.466-.393.72-.907 1.317-1.704 1.615-.264.098-.52.15-.77.15-.42 0-.816-.15-1.178-.47-.543-.482-.545-1.108-.394-1.752.255-1.086.69-2.12.872-3.228.164-1.005-.194-1.828-.946-2.12a1.62 1.62 0 0 0-.594-.112c-.62 0-1.25.342-1.65.953-.65 1.002-.73 2.096-.4 3.215.124.427.11.817.01 1.234-.435 1.82-.88 3.64-1.28 5.47-.304 1.394-.254 2.798.084 4.188h.253c1.288-1.43 2.046-3.118 2.446-4.985.093-.43.103-1.03.38-1.227a.248.248 0 0 1 .147-.05c.266 0 .546.44.848.59.525.258 1.13.383 1.754.383 1.23 0 2.545-.485 3.52-1.38 1.424-1.31 2.057-2.992 2.326-4.852l.09-.622V12.27c-.506-3.274-2.474-5.127-5.65-5.796-.386-.082-.787-.1-1.182-.148z"/></svg>