<svg xmlns="http://www.w3.org/2000/svg" viewBox="0 0 1000.0012 1000.001"><path d="M800.835 604.975c-52.14 0-99.655 19.982-135.193 52.618L385.582 528.08c8.23-21.634 12.748-45.06 12.748-69.515 0-19.142-2.77-37.652-7.917-55.17l236.67-109.445c34.142 60.265 99.226 101.078 173.752 101.078 109.82 0 199.166-88.604 199.166-197.513C1000 88.605 910.655 0 800.836 0c-109.818 0-199.16 88.605-199.16 197.515 0 23.238 4.078 45.546 11.545 66.27L378.352 372.4c-32.33-65.857-100.5-111.35-179.187-111.35C89.346 261.05 0 349.655 0 458.565s89.346 197.513 199.166 197.513c73.283 0 137.44-39.462 172.024-98.08l270.945 125.3c-25.377 33.15-40.46 74.452-40.46 119.188 0 108.908 89.342 197.515 199.16 197.515C910.655 1000 1000 911.395 1000 802.487s-89.346-197.51-199.165-197.51zm0-571.826c91.388 0 165.74 73.733 165.74 164.365 0 90.63-74.352 164.364-165.74 164.364-91.387 0-165.735-73.735-165.735-164.365 0-90.632 74.348-164.366 165.735-164.366zm-601.67 589.78c-91.39 0-165.74-73.733-165.74-164.365S107.776 294.2 199.166 294.2c91.388 0 165.738 73.733 165.738 164.365S290.553 622.93 199.166 622.93zm601.67 343.922c-91.387 0-165.735-73.736-165.735-164.366s74.348-164.362 165.735-164.362c91.388 0 165.74 73.732 165.74 164.362s-74.352 164.366-165.74 164.366z"/></svg>