<svg xmlns="http://www.w3.org/2000/svg" width="32" height="32" viewBox="0 0 32 32"><path d="M27.2 1.5c-.05-.55-.5-1-1.05-1H5.85C5.3.5 4.8.95 4.8 1.5L2.7 30.6c-.05.55.35.9.9.9h24.8c.55 0 .95-.35.95-.9L27.2 1.5zM5.8 2.55C5.85 2 6.35 1.5 6.9 1.5h18.2c.55 0 1.05.5 1.05 1.05l1.95 27c.05.55-.4.95-.95.95H4.8a.92.92 0 0 1-.95-.95l1.95-27zM19.85 4.5c0 1.3-.45 2.45-1.15 3.3S17.05 9.1 16 9.1c-1.05 0-2-.5-2.7-1.3-.7-.85-1.15-2-1.15-3.3 0-.3-.2-.5-.5-.5s-.5.2-.5.5c0 1.55.55 2.9 1.4 3.95.85 1 2.1 1.65 3.45 1.65s2.6-.65 3.45-1.65c.85-1 1.4-2.4 1.4-3.95 0-.3-.2-.5-.5-.5-.25 0-.5.25-.5.5zm-7.15-.05a1.05 1.05 0 1 1-2.1 0 1.05 1.05 0 0 1 2.1 0zm8.5 0a1.05 1.05 0 1 1-2.1 0 1.05 1.05 0 0 1 2.1 0zm-6.75 13.9a1.05 1.05 0 1 1-2.1 0 1.05 1.05 0 0 1 2.1 0zm5.2 0a1.05 1.05 0 1 1-2.1 0 1.05 1.05 0 0 1 2.1 0zm-6.5 4.75s.15-.4.65-.9c.25-.25.55-.5.95-.7.2-.1.4-.2.65-.25l.35-.1h.35c.25 0 .5.05.7.1.25.05.45.15.65.25s.35.25.5.35c.15.15.3.25.4.4l.15.15c.05.05.1.1.1.2.1.1.15.2.2.3.1.15.15.25.15.25s-.1-.05-.25-.2c-.1-.05-.15-.15-.25-.2-.1-.1-.2-.15-.35-.25s-.25-.15-.45-.25c-.15-.05-.35-.15-.5-.25-.2-.05-.35-.1-.55-.15-.2 0-.4-.1-.55-.05h-.3l-.3.05c-.2.05-.35.1-.55.15-.15.1-.35.15-.5.25s-.3.15-.45.25c-.45.3-.8.6-.8.6zM16 13.35c-3.7 0-6.65 3-6.65 6.65 0 3.7 3 6.65 6.65 6.65 3.7 0 6.65-3 6.65-6.65 0-3.7-2.95-6.65-6.65-6.65zm0 12.8c-3.4 0-6.15-2.75-6.15-6.15s2.75-6.15 6.15-6.15c3.4 0 6.15 2.75 6.15 6.15S19.4 26.15 16 26.15zm0-13c-3.8 0-6.85 3.05-6.85 6.85s3.05 6.85 6.85 6.85 6.85-3.05 6.85-6.85-3.05-6.85-6.85-6.85v.35c1.8 0 3.4.7 4.6 1.9 1.15 1.15 1.9 2.8 1.9 4.6s-.75 3.4-1.9 4.6c-1.2 1.15-2.8 1.9-4.6 1.9s-3.4-.7-4.6-1.9c-1.15-1.2-1.9-2.8-1.9-4.6s.75-3.4 1.9-4.6a6.54 6.54 0 0 1 4.6-1.9v-.35zm0 12.8c-1.65 0-3.15-.65-4.2-1.75-1.1-1.1-1.75-2.55-1.75-4.2s.65-3.15 1.75-4.2c1.1-1.1 2.55-1.75 4.2-1.75s3.15.65 4.2 1.75c1.1 1.1 1.75 2.55 1.75 4.2s-.65 3.1-1.75 4.2c-1.05 1.1-2.55 1.75-4.2 1.75v.4c3.5 0 6.3-2.85 6.3-6.3 0-3.5-2.85-6.3-6.3-6.3-3.5 0-6.3 2.85-6.3 6.3 0 3.5 2.85 6.3 6.3 6.3v-.4z"/></svg>