<svg xmlns="http://www.w3.org/2000/svg" width="32" height="32" viewBox="0 0 32 32"><path d="M28.23 9.232C26.6 6.77 24.427 4.937 21.71 3.806a.886.886 0 0 0-1.176.487c-.188.454.017 1 .47 1.19 2.4 1.017 4.296 2.604 5.724 4.753s2.148 4.516 2.148 7.104c0 1.74-.345 3.418-1.02 5.002s-1.6 2.963-2.744 4.108c-1.145 1.145-2.526 2.07-4.108 2.744A12.69 12.69 0 0 1 16 30.214a12.67 12.67 0 0 1-5.003-1.02c-1.583-.674-2.963-1.6-4.11-2.744s-2.07-2.524-2.743-4.108-1.02-3.262-1.02-5.002c0-2.556.69-4.91 2.088-7.056 1.395-2.15 3.274-3.755 5.614-4.768.45-.194.693-.714.485-1.16-.215-.464-.74-.683-1.19-.487-2.67 1.167-4.8 2.995-6.4 5.44s-2.4 5.13-2.4 8.03c0 1.99.386 3.89 1.16 5.69a15.017 15.017 0 0 0 3.136 4.675 14.58 14.58 0 0 0 4.673 3.137c1.817.77 3.715 1.16 5.708 1.16a14.4 14.4 0 0 0 5.69-1.16c1.82-.772 3.384-1.824 4.69-3.137 1.298-1.305 2.347-2.872 3.12-4.674a14.247 14.247 0 0 0 1.177-5.69c0-2.95-.815-5.647-2.447-8.108zM14.93.974v17.048a.974.974 0 1 0 1.948 0V.974a.974.974 0 1 0-1.948 0z"/></svg>