<svg xmlns="http://www.w3.org/2000/svg" width="32" height="32" viewBox="0 0 32 32"><path d="M12.064 31.85a.52.52 0 0 1-.733 0L.15 20.67a.52.52 0 0 1 0-.734L19.937.15a.52.52 0 0 1 .733 0l11.18 11.18a.52.52 0 0 1 0 .734L12.063 31.85zM1.574 19.892a.52.52 0 0 0 0 .733l9.8 9.8a.52.52 0 0 0 .733 0l18.32-18.32a.52.52 0 0 0 0-.732l-9.8-9.8a.52.52 0 0 0-.734 0l-18.32 18.32zm26.565-8.556c-.203-.202-.45-.284-.55-.183s-.35.018-.55-.183L22.275 6.21a.52.52 0 0 0-.733.733l4.763 4.763a.52.52 0 0 1-.733.733l-1.832-1.832a.52.52 0 0 0-.732.733l1.832 1.832a.52.52 0 0 1-.733.733L19.344 9.14a.52.52 0 0 0-.733.733l4.764 4.763a.52.52 0 0 1-.733.733l-1.83-1.833a.52.52 0 0 0-.734.733l1.832 1.832a.52.52 0 0 1-.733.733l-4.763-4.763a.52.52 0 0 0-.733.733l4.762 4.763a.52.52 0 0 1-.733.733l-1.832-1.83a.52.52 0 0 0-.733.733l1.832 1.83a.52.52 0 0 1-.733.734l-4.763-4.763a.52.52 0 0 0-.733.733L17.51 20.5a.52.52 0 0 1-.733.733L14.945 19.4a.52.52 0 0 0-.733.734l1.832 1.832a.52.52 0 0 1-.733.733l-4.762-4.764a.52.52 0 0 0-.733.733l4.763 4.762a.52.52 0 0 1-.733.733l-1.832-1.832a.52.52 0 0 0-.733.733l1.832 1.832a.52.52 0 0 1-.733.733L7.616 20.87a.52.52 0 0 0-.733.733l4.763 4.763a.52.52 0 0 1-.733.733L9.08 25.265a.52.52 0 0 0-.733.733l1.833 1.832c.202.202.284.45.183.55s-.018.348.183.55a.52.52 0 0 0 .733 0l16.853-16.854a.52.52 0 0 0 0-.733z"/></svg>