<svg xmlns="http://www.w3.org/2000/svg" width="32" height="32" viewBox="0 0 32 32"><path d="M9.19 22.76c-.004.018.008.03.026.026l7.446-1.553a.15.15 0 0 0 .058-.03L31.952 5.97a.034.034 0 0 0 0-.048L26.054.024a.034.034 0 0 0-.048 0L10.774 15.256a.136.136 0 0 0-.03.058L9.19 22.76zm2.124-7.162zm-1.302 6.393c-.018.005-.03-.007-.026-.025l1.256-6.022a.027.027 0 0 1 .038-.02l3.305 1.424a.103.103 0 0 1 .045.045l1.424 3.305c.007.017-.002.035-.02.038l-6.022 1.256zm6.367-1.327zm-1.276-3.746a.103.103 0 0 0-.045-.045l-3.478-1.498c-.017-.007-.02-.024-.007-.038l11.9-11.9a.034.034 0 0 1 .047 0l5.017 5.018a.034.034 0 0 1 0 .048l-11.9 11.9c-.013.012-.03.01-.038-.008l-1.498-3.477zM31.07 5.922a.034.034 0 0 1 0 .048l-2.043 2.044a.034.034 0 0 1-.048 0L23.96 2.997a.034.034 0 0 1 0-.048L26.006.904a.034.034 0 0 1 .048 0l5.017 5.017zm-1.054 2.59V29.57c0 .8-.66 1.405-1.46 1.405H2.406c-.8 0-1.382-.605-1.382-1.406V3.42c0-.8.582-1.436 1.383-1.436H23.19l1.25-.96H2.407A2.388 2.388 0 0 0 0 3.42v26.15C0 30.905 1.067 32 2.405 32h26.15c1.336 0 2.483-1.094 2.483-2.43V7.762l-1.025.75z"/></svg>