<svg xmlns="http://www.w3.org/2000/svg" width="32" height="32" viewBox="0 0 32 32"><path d="M0 31.46a.476.476 0 0 0 .504.506l12.29-.512c.29-.012.696-.19.902-.396l18.15-18.15a.53.53 0 0 0 0-.747L19.87.187a.53.53 0 0 0-.746 0L.974 18.336c-.205.205-.384.61-.398.9L0 31.46zM19.11 1.79a.53.53 0 0 1 .746 0L30.24 12.177a.53.53 0 0 1 0 .747l-17.02 17.02c-.205.206-.61.384-.9.396l-10.626.44a.476.476 0 0 1-.503-.505l.498-10.56c.014-.29.193-.697.398-.902l17.02-17.02zM8.76 27.944c1.312-1.312 1.33-3.427.043-4.715S5.4 21.96 4.088 23.27s-1.33 3.428-.043 4.716c1.288 1.288 3.403 1.268 4.715-.043zm-3.876-3.876c.865-.865 2.26-.878 3.11-.03s.837 2.245-.03 3.11c-.864.866-2.26.88-3.11.03s-.836-2.245.03-3.11z"/></svg>