<svg xmlns="http://www.w3.org/2000/svg" width="32" height="32" viewBox="0 0 32 32"><path d="M14.546 8.628h-.452c0 .36-.075.79-.21 1.258-.237.822-.667 1.758-1.183 2.693-.768 1.402-1.72 2.794-2.477 3.837-.382.52-.71.95-.946 1.252l-.274.348c-.032.038-.06.07-.075.09-.01.012-.016.017-.016.022l-.005.005c-.043.048-.08.08-.118.097s-.07.027-.108.027a.205.205 0 0 1-.107-.028.348.348 0 0 1-.118-.097c-.032-.043-1.35-1.65-2.645-3.645-.65-1-1.29-2.09-1.77-3.128-.236-.516-.434-1.02-.57-1.484S3.27 8.99 3.27 8.63c0-1.558.606-2.96 1.59-3.977a5.31 5.31 0 0 1 1.72-1.2c.645-.284 1.355-.44 2.102-.44s1.457.156 2.102.44c.968.426 1.795 1.135 2.38 2.033s.93 1.978.93 3.15H15a6.597 6.597 0 0 0-1.844-4.6A6.22 6.22 0 0 0 8.687 2.12c-.87 0-1.704.184-2.462.517A6.347 6.347 0 0 0 3.45 5.002a6.654 6.654 0 0 0-1.074 3.64c0 .477.09.983.247 1.51.27.92.726 1.903 1.258 2.87.797 1.45 1.77 2.87 2.544 3.935.774 1.06 1.35 1.758 1.35 1.763.117.14.257.258.413.333s.328.118.5.118.344-.037.5-.117c.156-.075.3-.188.414-.333a45.917 45.917 0 0 0 2.673-3.677c.667-1.027 1.338-2.16 1.85-3.268.252-.554.467-1.097.623-1.623.15-.527.247-1.032.247-1.51h-.446zm-5.45 10.498c.305-.07.666-.113 1.063-.113.434 0 .907.048 1.407.167a.45.45 0 0 0 .2-.877 7.295 7.295 0 0 0-1.614-.188c-.457 0-.882.048-1.263.134a.45.45 0 0 0-.34.537c.06.237.302.392.544.34zm7.675 4.832c.012.06.022.118.04.177.058.258.107.57.176.92.102.52.242 1.112.516 1.714s.693 1.208 1.333 1.74c.194.157.473.13.634-.058a.456.456 0 0 0-.06-.634 3.822 3.822 0 0 1-.822-.93 5.02 5.02 0 0 1-.613-1.505c-.06-.253-.108-.505-.156-.747a19.042 19.042 0 0 0-.135-.7l-.032-.155a.446.446 0 0 0-.527-.348.438.438 0 0 0-.355.527zM13 19.668c.5.232 1 .512 1.478.834.473.328.92.693 1.295 1.097.302.316.485.612.62.902.1.226.37.328.596.22a.446.446 0 0 0 .22-.597 4.375 4.375 0 0 0-.78-1.145 8.932 8.932 0 0 0-1.44-1.22 11.19 11.19 0 0 0-1.613-.914.453.453 0 0 0-.597.22.45.45 0 0 0 .22.602zm7.332 9.736c.312.13.618.226.914.296.36.086.693.124 1 .145s.59.02.876.038a.453.453 0 0 0 .473-.425.453.453 0 0 0-.425-.473c-.306-.016-.586-.016-.86-.038a4.773 4.773 0 0 1-1.623-.37.445.445 0 0 0-.586.24c-.11.226 0 .49.23.586zM10.848 8.708h-.452c0 .532-.21 1.01-.543 1.355-.167.172-.366.312-.58.41s-.458.144-.705.144c-.253 0-.49-.054-.704-.145-.328-.145-.607-.382-.806-.688S6.74 9.112 6.74 8.71c0-.533.21-1.012.544-1.356.167-.172.366-.312.58-.41s.458-.144.705-.144c.252 0 .488.054.703.145.328.145.607.382.806.688s.316.672.316 1.075h.903a2.82 2.82 0 0 0-1.662-2.585 2.623 2.623 0 0 0-2.128 0c-.49.215-.908.575-1.2 1.02s-.46.99-.46 1.565a2.82 2.82 0 0 0 1.66 2.585 2.623 2.623 0 0 0 2.128 0c.49-.215.908-.575 1.2-1.02s.46-.99.46-1.565h-.45zm18.325 10.65h-.452c0 .36-.074.79-.21 1.257-.236.822-.666 1.758-1.182 2.693-.77 1.403-1.72 2.795-2.478 3.838-.382.52-.71.95-.946 1.252-.118.15-.21.27-.274.35-.032.037-.06.07-.075.09-.01.01-.016.016-.016.02l-.006.006c-.043.048-.08.08-.118.097s-.07.028-.108.028a.21.21 0 0 1-.108-.027.348.348 0 0 1-.118-.096c-.032-.043-1.35-1.65-2.645-3.645-.65-1-1.29-2.092-1.77-3.13-.236-.515-.434-1.02-.57-1.483s-.203-.887-.203-1.247c0-1.56.607-2.962 1.59-3.978a5.31 5.31 0 0 1 1.72-1.2c.646-.284 1.356-.44 2.103-.44s1.457.156 2.102.44c.967.426 1.794 1.135 2.38 2.033s.93 1.978.93 3.15h.903a6.597 6.597 0 0 0-1.844-4.6 6.22 6.22 0 0 0-4.468-1.915c-.87 0-1.704.183-2.462.516a6.347 6.347 0 0 0-2.774 2.365A6.654 6.654 0 0 0 17 19.37c0 .478.092.984.248 1.51.27.92.726 1.904 1.258 2.87.796 1.452 1.77 2.87 2.543 3.936.773 1.06 1.348 1.758 1.348 1.763.118.14.258.257.414.332s.328.118.5.118.344-.038.5-.118c.156-.075.3-.188.414-.333a45.917 45.917 0 0 0 2.672-3.678c.667-1.027 1.338-2.16 1.85-3.268.252-.554.467-1.097.623-1.623.152-.526.248-1.03.248-1.51h-.446zm-3.704.08h-.453c0 .532-.21 1.01-.543 1.355-.167.172-.366.312-.58.41s-.458.144-.705.144c-.254 0-.49-.054-.705-.145-.328-.145-.607-.382-.806-.688s-.318-.672-.318-1.075c0-.533.21-1.012.543-1.356.167-.172.366-.312.58-.41s.458-.144.705-.144c.253 0 .49.054.704.145.328.145.607.382.806.688s.317.672.317 1.075h.903a2.82 2.82 0 0 0-1.66-2.585 2.623 2.623 0 0 0-2.13 0c-.488.215-.907.575-1.198 1.02s-.462.99-.462 1.565a2.82 2.82 0 0 0 1.66 2.585 2.623 2.623 0 0 0 2.13 0c.488-.215.907-.575 1.198-1.02s.462-.99.462-1.565h-.452z"/></svg>