<svg xmlns="http://www.w3.org/2000/svg" width="32" height="32" viewBox="0 0 32 32"><path d="M16 32C7.178 32 0 24.822 0 16S7.178 0 16 0s16 7.177 16 16-7.178 16-16 16zm0-30.968C7.747 1.032 1.033 7.747 1.033 16S7.748 30.966 16 30.966 30.967 24.252 30.967 16C30.967 7.745 24.252 1.03 16 1.03zm4.06 7.66c.072.016.14.022.195.028l.074.01c.784.13 1.428.46 1.97 1.006a.685.685 0 0 0 .648.204c.385-.082.762-.19 1.13-.32a3.696 3.696 0 0 1-.44.404c-.29.227-.236.495-.2.6l.12.348h.368c.08 0 .147-.017.2-.04.155-.018.293-.03.42-.04a7.59 7.59 0 0 1-.89.783.758.758 0 0 0-.322.66c.018.65-.01 1.228-.085 1.764a11.61 11.61 0 0 1-1.24 3.843 11.13 11.13 0 0 1-2.396 3.086 10.294 10.294 0 0 1-2.072 1.447c-1.47.776-3.126 1.194-4.92 1.24a11.05 11.05 0 0 1-4.44-.81c1.517-.19 2.924-.773 4.195-1.742l.928-.707-1.147-.21c-.087-.017-.174-.027-.26-.037-.052-.005-.104-.01-.155-.02-1.175-.188-2.026-.742-2.584-1.688a4.66 4.66 0 0 0 .648-.057c.132-.02.282-.044.443-.098l.663-.22-.405-.57a.58.58 0 0 0-.38-.24 3.448 3.448 0 0 1-1.884-1.172 3.398 3.398 0 0 1-.747-1.513c.308.097.63.16.968.194l.12.008c.112 0 .217-.024.315-.07l.73-.355-.63-.512-.134-.107a3.66 3.66 0 0 1-.222-.182c-.838-.775-1.226-1.697-1.187-2.817.01-.318.066-.627.168-.934a12.05 12.05 0 0 0 3.934 2.8c1.31.58 2.692.914 4.108.998l.094.004a.56.56 0 0 0 .45-.2c.168-.202.126-.43.105-.54-.13-.693-.08-1.317.153-1.907.5-1.27 1.4-2.014 2.754-2.276.068-.013.137-.022.205-.032l.075-.01h.56zm.063-.516h-.66c-.113.017-.228.03-.34.052-1.518.294-2.57 1.156-3.137 2.593-.28.71-.32 1.446-.18 2.193.02.106.024.127-.047.127l-.064-.003c-1.367-.08-2.677-.4-3.93-.955a11.51 11.51 0 0 1-4.208-3.18l-.07-.063c-.02 0-.036.024-.064.077a3.973 3.973 0 0 0-.484 1.756c-.044 1.28.416 2.347 1.352 3.214.118.11.25.204.382.312l-.088.018-.086-.007a3.983 3.983 0 0 1-1.473-.427l-.09-.036c-.028 0-.032.03-.03.107.012.953.33 1.794.94 2.523a3.985 3.985 0 0 0 2.157 1.34l.083.04c-.127.042-.255.06-.382.08a3.97 3.97 0 0 1-1.268-.004l-.05-.005c-.052 0-.057.027-.03.098.593 1.52 1.692 2.415 3.304 2.674.133.02.268.028.404.053C10.56 21.9 8.89 22.46 7.06 22.46c-.297 0-.598-.014-.903-.043l.057.06a11.562 11.562 0 0 0 6.422 1.755c1.813-.047 3.537-.45 5.148-1.3a10.79 10.79 0 0 0 2.176-1.52 11.577 11.577 0 0 0 2.506-3.23 12.097 12.097 0 0 0 1.295-4.013 11.12 11.12 0 0 0 .09-1.852.246.246 0 0 1 .114-.23c.7-.52 1.296-1.14 1.798-1.853l.072-.108.01-.043c-.722.31-1.087.25-1.882.344l-.035.025.03-.025a4.02 4.02 0 0 0 1.314-1.805l.02-.11-.025-.01-.08.045a8.218 8.218 0 0 1-2.344.887l-.04.005c-.055 0-.092-.026-.133-.067a4.004 4.004 0 0 0-2.253-1.154c-.097-.017-.196-.016-.29-.045zM24 10.4l-.043.03h.004l.04-.03z"/></svg>