<svg xmlns="http://www.w3.org/2000/svg" width="32" height="32" viewBox="0 0 32 32"><path d="M22.485 25.985a1.5 1.5 0 0 1-1.06-2.56c4.093-4.094 4.093-10.755 0-14.85a1.5 1.5 0 1 1 2.12-2.12c2.55 2.55 3.954 5.94 3.954 9.546s-1.405 6.997-3.955 9.547c-.293.293-.677.44-1.06.44zm-5.328-2.828a1.5 1.5 0 0 1-1.06-2.56 6.508 6.508 0 0 0 0-9.192 1.5 1.5 0 1 1 2.12-2.12c3.704 3.703 3.704 9.73 0 13.434-.293.292-.677.438-1.06.438zM13 30a1 1 0 0 1-.707-.293L4.586 22H1a1 1 0 0 1-1-1V11a1 1 0 0 1 1-1h3.586l7.707-7.707A1 1 0 0 1 14 3v26a1.002 1.002 0 0 1-1 1z"/></svg>