<svg xmlns="http://www.w3.org/2000/svg" width="32" height="32" viewBox="0 0 32 32"><path d="M31.756 7.73c-.306-.108-.744.29-.975.887L25.49 22.3c-.23.597-.943 1.085-1.583 1.085H8.005c-.64 0-1.346-.49-1.57-1.09L1.248 8.377c-.223-.6-.657-1.003-.964-.897s-.375.683-.152 1.282L5.6 23.436c.224.6.93 1.09 1.57 1.09h17.56c.64 0 1.352-.488 1.583-1.085l5.58-14.425c.23-.597.168-1.174-.137-1.284zm-7.082 9.95c-1.423 0-2.124-1.1-2.688-1.985-.57-.892-.954-1.44-1.677-1.44s-1.108.548-1.676 1.44c-.563.884-1.264 1.984-2.686 1.984-1.416 0-2.112-1.102-2.672-1.986-.564-.89-.946-1.438-1.66-1.438s-1.095.547-1.66 1.437c-.558.885-1.255 1.986-2.67 1.986s-2.112-1.102-2.672-1.987c-.564-.89-.945-1.437-1.658-1.437-.327 0-.593-.255-.593-.57s.265-.572.593-.572c1.415 0 2.11 1.1 2.67 1.986.564.89.945 1.437 1.658 1.437s1.096-.547 1.66-1.438c.56-.885 1.256-1.986 2.672-1.986s2.113 1.1 2.672 1.986c.564.89.946 1.437 1.66 1.437.72 0 1.106-.547 1.675-1.44.563-.883 1.264-1.983 2.686-1.983s2.123 1.1 2.686 1.983c.57.893.954 1.44 1.677 1.44s1.108-.547 1.677-1.44c.564-.883 1.265-1.983 2.688-1.983.327 0 .593.255.593.57s-.264.572-.592.572c-.723 0-1.108.547-1.677 1.44-.563.884-1.264 1.983-2.686 1.983z"/></svg>