<svg xmlns="http://www.w3.org/2000/svg" width="32" height="32" viewBox="0 0 32 32"><path d="M16 32C7.178 32 0 24.822 0 16S7.178 0 16 0s16 7.177 16 16-7.178 16-16 16zm0-30.968C7.747 1.032 1.033 7.747 1.033 16S7.748 30.966 16 30.966 30.967 24.252 30.967 16C30.967 7.745 24.252 1.03 16 1.03zm-.017 9.328l.703.012c.558.01 1.116.022 1.674.035.65.016 1.298.034 1.947.058h.03c.49.02.996.038 1.487.08.368.03 1.257.18 1.565.926.1.245.178.483.23.708.056.232.074.478.093.742.042.57.074 1.154.095 1.734.007.19.022.44.036.66.012.198.024.37.024.44s-.01.24-.024.44c-.014.218-.03.467-.036.658a49.89 49.89 0 0 1-.096 1.738 4.68 4.68 0 0 1-.092.738c-.053.225-.13.463-.232.707-.308.745-1.197.897-1.565.927-.49.04-.997.06-1.487.078h-.03c-.648.025-1.297.043-1.946.06-.558.013-1.116.024-1.675.034l-.695.012-.71-.012a311.57 311.57 0 0 1-1.675-.035c-.65-.017-1.298-.035-1.947-.06h-.03c-.49-.018-.997-.037-1.487-.078-.367-.03-1.256-.182-1.564-.927a4.474 4.474 0 0 1-.232-.707c-.054-.23-.072-.475-.092-.742a48.07 48.07 0 0 1-.122-2.833 47.073 47.073 0 0 1 .123-2.84c.02-.26.037-.505.09-.735.055-.228.13-.46.233-.707.308-.744 1.197-.896 1.565-.926.492-.04 1-.06 1.49-.078h.028c.65-.025 1.298-.043 1.947-.06a232.74 232.74 0 0 1 1.675-.034l.703-.012zm-2.22 8.392l6.11-3.177-6.107-3.188v.85l-.002 4.664v.852zm2.22-8.908l-.712.012c-.558.01-1.117.022-1.677.035-.65.017-1.302.035-1.953.06a34.36 34.36 0 0 0-1.54.08c-.836.068-1.665.434-2 1.243a5.274 5.274 0 0 0-.257.786 5.174 5.174 0 0 0-.104.822 46.72 46.72 0 0 0-.124 2.87 47.2 47.2 0 0 0 .123 2.87c.02.28.04.55.103.824.064.27.152.53.258.786.335.81 1.164 1.175 2 1.244.512.042 1.027.06 1.54.08a233.576 233.576 0 0 0 3.63.093l.713.012.712-.01c.56-.01 1.118-.023 1.678-.036a159.3 159.3 0 0 0 1.954-.058 34.36 34.36 0 0 0 1.54-.08c.836-.07 1.665-.435 2-1.244.104-.255.193-.517.257-.786.064-.273.084-.544.104-.823.043-.584.075-1.168.096-1.753.014-.372.06-.97.06-1.118s-.046-.746-.06-1.118a51.113 51.113 0 0 0-.096-1.752 5.16 5.16 0 0 0-.104-.823 5.16 5.16 0 0 0-.258-.787c-.334-.81-1.163-1.175-2-1.244-.51-.043-1.026-.062-1.54-.08a233.576 233.576 0 0 0-3.632-.093c-.236-.005-.474-.01-.71-.013zm-1.703 8.058l.002-4.663 4.474 2.334-4.476 2.328z"/></svg>