<svg xmlns="http://www.w3.org/2000/svg" width="32" height="32" viewBox="0 0 32 32"><path d="M9.162 0L7 4.287 4.838-.002H2.08L5.977 6.79 6 6.777V12h2V6.776l.023.013L11.92 0zM15 4c.542 0 1 .457 1 1v4c0 .54-.458 1-1 1s-1-.46-1-1V5c0-.543.458-1 1-1zm0-2c-1.65 0-3 1.35-3 3v4c0 1.65 1.35 3 3 3s3-1.35 3-3V5c0-1.65-1.35-3-3-3zm9 0v7.873c-.873.728-2 1.167-2-1.426V2h-2v6.853h.003c.03 1.653.38 4.63 3.997 2.21V12h2V2h-2zm3 20c-.55 0-1 .448-1 1v1h2v-1c0-.552-.45-1-1-1zm-9 1v5.25c.677.676 2 .75 2-.25v-4.69c0-1-1-1.312-2-.312zm13.836-4.828c-.087-1.152-.5-2.092-1.243-2.82s-1.69-1.125-2.846-1.19c-2.18-.11-7.17-.163-11.554-.163s-9.728.053-11.91.162c-1.155.065-2.103.462-2.845 1.19S.282 17.02.195 18.172C.065 20.52 0 21.37 0 22.544s.064 2.934.195 5.282c.087 1.152.502 2.092 1.243 2.82s1.69 1.125 2.846 1.19c2.18.11 7.525.163 11.91.163s9.372-.055 11.553-.164c1.156-.065 2.104-.462 2.846-1.19s1.156-1.668 1.243-2.82c.11-1.956.164-3.717.164-5.282s-.055-2.416-.164-4.372zM6 30H4V20H2v-2h6v2H6v10zm8 0h-2v-.937c-3.802 2.134-3.966.07-3.997-1.585H8v-5.48h2v5.51c0 1.21 1.127 1.092 2 .365V22h2v8zm8-2.03c0 2.09-2.14 2.7-4 1.075V30h-2V18h2v3.25c2-2 4-1.25 4 .75v5.97zM30 24v1h-4v2c0 .55.45 1 1 1s1-.45 1-1v-1h2v1c0 1.653-1.346 3-3 3s-3-1.347-3-3v-4c0-1.655 1.346-3 3-3s3 1.345 3 3v1z"/></svg>